<svg id="Layer_1" data-name="Layer 1" xmlns="http://www.w3.org/2000/svg" viewBox="0 0 60 57"><defs><style>.cls-1{fill:#fff;}.cls-1,.cls-2,.cls-3{stroke:#0097A7;stroke-linecap:round;stroke-miterlimit:10;stroke-width:1px;}.cls-2{fill:#B2EBF2;}.cls-3{fill:none;}</style></defs><title>media-rendering-icon</title><path class="cls-1" d="M60.77,74H39.23a0.24,0.24,0,0,1-.12-0.44l1.8-1.27A6,6,0,0,0,43.21,66H56.79a6,6,0,0,0,2.3,6.29l1.8,1.27A0.24,0.24,0,0,1,60.77,74Z" transform="translate(-20 -21)"/><rect class="cls-1" x="1" y="1" width="58" height="44" rx="3.5" ry="3.5"/><path class="cls-2" d="M4.5,1h51A3.5,3.5,0,0,1,59,4.5V36a0,0,0,0,1,0,0H1a0,0,0,0,1,0,0V4.5A3.5,3.5,0,0,1,4.5,1Z"/><line class="cls-3" x1="5" y1="9" x2="9" y2="5"/><line class="cls-3" x1="5" y1="14" x2="7" y2="12"/><line class="cls-3" x1="9" y1="10" x2="9" y2="10"/><line class="cls-3" x1="11" y1="8" x2="14" y2="5"/><line class="cls-3" x1="5" y1="19" x2="14" y2="10"/><line class="cls-3" x1="16" y1="8" x2="16" y2="8"/><line class="cls-3" x1="18" y1="6" x2="19" y2="5"/><rect class="cls-1" x="17" y="53" width="26" height="3" rx="1.5" ry="1.5"/></svg>
