<?xml version="1.0" encoding="iso-8859-1"?>
<!-- Generator: Adobe Illustrator 17.0.0, SVG Export Plug-In . SVG Version: 6.00 Build 0)  -->
<!DOCTYPE svg PUBLIC "-//W3C//DTD SVG 1.1//EN" "http://www.w3.org/Graphics/SVG/1.1/DTD/svg11.dtd">
<svg version="1.1" xmlns="http://www.w3.org/2000/svg" xmlns:xlink="http://www.w3.org/1999/xlink" x="0px" y="0px" width="150px"
	 height="150px" viewBox="0 0 150 150" style="enable-background:new 0 0 150 150;" xml:space="preserve">
<g id="&#x56FE;&#x5C42;_2">
	<path style="fill:#AB1E52;" d="M127.629,128.927c-28.21,28.21-77.203,27.87-105.803-0.73s-28.939-77.593-0.73-105.803
		s78.661-29.331,107.263-0.73S155.839,100.718,127.629,128.927z M26.877,28.132C1.421,53.587,1.744,96.597,27.585,122.439
		s68.852,26.164,94.307,0.708s26.548-69.884,0.708-95.724C96.759,1.582,52.331,2.677,26.877,28.132z M82.203,90.679l-4.316-4.316
		c1.693-1.589,3.389-3.219,5.086-4.916c21.822-21.822,33.869-42.507,30.989-45.386c-2.879-2.879-23.564,9.168-45.386,30.989
		c-1.697,1.697-3.327,3.393-4.918,5.085l-4.316-4.316c1.597-1.703,3.233-3.406,4.941-5.114
		c25.502-25.502,49.679-38.162,55.437-32.403c5.759,5.759-6.902,29.936-32.403,55.437C85.611,87.447,83.906,89.083,82.203,90.679z
		 M93.808,56.216c2.385,2.385-4.06,12.698-14.396,23.034c-1.496,1.496-2.98,2.871-4.451,4.186l-8.374-8.374
		c1.316-1.471,2.692-2.954,4.188-4.45C81.111,60.276,91.423,53.83,93.808,56.216z M72.214,77.81c1.591,1.591,4.169,1.589,5.759,0
		c1.589-1.589,1.589-4.169,0-5.759c-1.589-1.589-4.169-1.589-5.759,0C70.624,73.641,70.623,76.22,72.214,77.81z M36.223,36.061
		c-2.879,2.879,9.461,23.858,31.672,46.068s43.189,34.551,46.068,31.672c2.211-2.211-4.587-15.113-17.91-31.037l4.302-4.302
		c16.505,19.793,23.987,36.477,19.367,41.097c-5.759,5.759-30.232-7.198-56.146-33.111s-38.87-50.387-33.111-56.146
		c4.623-4.623,21.311,2.835,41.114,19.35l-4.315,4.315C51.336,40.645,38.434,33.85,36.223,36.061z M30.464,119.56
		c-4.554-4.554,3.334-21.525,19.431-41.034l4.297,4.297c-13.017,15.689-20.145,28.803-17.969,30.978
		c2.175,2.175,15.289-4.952,30.978-17.969l4.297,4.297C51.99,116.225,35.018,124.113,30.464,119.56z M56.378,93.646
		c-1.049-1.049-0.386-3.634,1.559-7.079l5.518,5.518C60.011,94.032,57.427,94.696,56.378,93.646z M14.554,11.662
		c0.792-0.792,2.077-0.787,2.872,0.007l2.879,2.879c0.795,0.795,0.799,2.08,0.007,2.872l-2.863,2.863
		c-0.792,0.792-2.077,0.787-2.872-0.007l-2.879-2.879c-0.795-0.795-0.799-2.08-0.007-2.872L14.554,11.662z M11.702,11.606
		c-2.373,2.373-6.229,2.362-8.615-0.023S0.691,5.341,3.064,2.968s6.229-2.362,8.615,0.023C14.064,5.377,14.074,9.234,11.702,11.606z
		 M135.543,138.289c-0.792,0.792-2.077,0.787-2.872-0.007l-2.879-2.879c-0.796-0.796-0.799-2.08-0.007-2.872l2.863-2.863
		c0.792-0.792,2.076-0.789,2.872,0.007l2.879,2.879c0.795,0.795,0.799,2.08,0.007,2.872L135.543,138.289z M138.463,138.278
		c2.373-2.373,6.229-2.362,8.615,0.023c2.384,2.384,2.396,6.242,0.023,8.615s-6.231,2.361-8.615-0.023
		C136.099,144.508,136.089,140.652,138.463,138.278z"/>
</g>
<g id="&#x56FE;&#x5C42;_3">
	<ellipse style="opacity:0.25;fill:#AB1E52;" cx="74.566" cy="74.932" rx="73.721" ry="72.888"/>
</g>
</svg>
