<?xml version="1.0" encoding="iso-8859-1"?>
<!-- Generator: Adobe Illustrator 17.0.0, SVG Export Plug-In . SVG Version: 6.00 Build 0)  -->
<!DOCTYPE svg PUBLIC "-//W3C//DTD SVG 1.1//EN" "http://www.w3.org/Graphics/SVG/1.1/DTD/svg11.dtd">
<svg version="1.1" id="&#x56FE;&#x5C42;_1" xmlns="http://www.w3.org/2000/svg" xmlns:xlink="http://www.w3.org/1999/xlink" x="0px"
	 y="0px" width="150px" height="150px" viewBox="0 0 150 150" style="enable-background:new 0 0 150 150;" xml:space="preserve">
<g id="media">
	<g>
		<g>
			<path style="fill:#E52517;" d="M94.496,72.331l-28.449-18.11c-0.795-0.504-1.807-0.543-2.641-0.087
				c-0.821,0.453-1.338,1.325-1.338,2.273v36.204c0,0.947,0.517,1.82,1.338,2.273c0.391,0.204,0.821,0.317,1.251,0.317
				c0.478,0,0.973-0.139,1.39-0.404l28.449-18.11c0.747-0.466,1.203-1.3,1.203-2.185C95.699,73.618,95.243,72.797,94.496,72.331
				L94.496,72.331z M67.247,87.901V61.117l21.039,13.384L67.247,87.901z"/>
			<path style="fill:#E52517;" d="M147.423,15.024H2.591c-1.429,0-2.589,1.161-2.589,2.589v113.792c0,1.426,1.161,2.589,2.589,2.589
				h144.833c1.426,0,2.573-1.164,2.573-2.589V17.613C149.997,16.184,148.849,15.024,147.423,15.024L147.423,15.024z M25.864,71.927
				H5.18V48.638h20.684V71.927z M5.18,77.09h20.684v23.273H5.18V77.09z M31.042,102.953v-82.75h87.929v108.613H31.042V102.953z
				 M144.834,71.927h-20.7V48.638h20.7V71.927z M124.134,77.09h20.7v23.273h-20.7V77.09z M144.834,20.202v23.273h-20.7V20.202
				H144.834z M5.18,20.202h20.684v23.273H5.18V20.202z M5.18,128.815v-23.273h20.684v23.273H5.18z M144.834,128.815h-20.7v-23.273
				h20.7V128.815z"/>
		</g>
		<rect x="31.042" y="20.202" style="opacity:0.25;fill:#E52517;enable-background:new    ;" width="87.929" height="108.613"/>
		<polygon style="fill:#FFFFFF;" points="67.247,61.117 88.286,74.501 67.247,87.901 		"/>
	</g>
</g>
</svg>
