<?xml version="1.0" encoding="iso-8859-1"?>
<!-- Generator: Adobe Illustrator 17.0.0, SVG Export Plug-In . SVG Version: 6.00 Build 0)  -->
<!DOCTYPE svg PUBLIC "-//W3C//DTD SVG 1.1//EN" "http://www.w3.org/Graphics/SVG/1.1/DTD/svg11.dtd">
<svg version="1.1" id="&#x56FE;&#x5C42;_1" xmlns="http://www.w3.org/2000/svg" xmlns:xlink="http://www.w3.org/1999/xlink" x="0px"
	 y="0px" width="150px" height="150px" viewBox="0 0 150 150" style="enable-background:new 0 0 150 150;" xml:space="preserve">
<g id="&#x56FE;&#x5C42;_2">
	<g>
		<path style="fill:#43B3CB;" d="M142.46,72.501V17.516c0-6.891-5.606-12.497-12.497-12.497H19.994
			c-6.891,0-12.497,5.606-12.497,12.497v37.49C3.364,55.006,0,58.37,0,62.503v74.979c0,4.134,3.364,7.498,7.498,7.498h54.985
			c4.134,0,7.498-3.364,7.498-7.498h20.947c2.357,0,4.529-1.075,5.958-2.947c1.43-1.872,1.894-4.251,1.275-6.523l-4.914-18.022
			h14.224v27.492c0,4.134,3.364,7.498,7.498,7.498h27.492c4.134,0,7.498-3.364,7.498-7.498V79.999
			C149.958,75.865,146.594,72.501,142.46,72.501z M144.96,79.999v4.999h-32.491v-4.999c0-1.377,1.122-2.499,2.499-2.499h27.492
			C143.838,77.499,144.96,78.621,144.96,79.999z M112.469,89.996h32.491v37.49h-32.491
			C112.469,127.486,112.469,89.996,112.469,89.996z M12.497,17.516c0-4.134,3.364-7.498,7.498-7.498h109.969
			c4.134,0,7.498,3.364,7.498,7.498v54.985h-22.494c-4.134,0-7.498,3.364-7.498,7.498v4.999H69.98V62.503
			c0-4.134-3.364-7.498-7.498-7.498H12.497V17.516z M64.982,127.485H4.999V72.501h59.983V127.485z M7.498,60.004h54.985
			c1.377,0,2.499,1.122,2.499,2.499v4.999H4.999v-4.999C4.999,61.126,6.121,60.004,7.498,60.004z M62.483,139.982H7.498
			c-1.377,0-2.499-1.122-2.499-2.499v-4.999h59.983v4.999C64.982,138.86,63.86,139.982,62.483,139.982z M92.914,131.502
			c-0.477,0.625-1.2,0.982-1.987,0.982H69.981v-4.999h22.856l0.502,1.842C93.547,130.085,93.392,130.877,92.914,131.502z
			 M91.475,122.487H69.981V109.99h18.085L91.475,122.487z M69.981,104.992V89.996h37.49v14.996
			C107.471,104.992,69.981,104.992,69.981,104.992z M142.46,139.982h-27.492c-1.377,0-2.499-1.122-2.499-2.499v-4.999h32.491v4.999
			C144.96,138.86,143.838,139.982,142.46,139.982z"/>
		
			<rect x="12.926" y="102.49" transform="matrix(0.7071 -0.7071 0.7071 0.7071 -68.3826 44.8893)" style="fill:#43B3CB;" width="14.138" height="4.999"/>
		
			<rect x="18.782" y="99.991" transform="matrix(0.7071 -0.7071 0.7071 0.7071 -60.7594 58.2958)" style="fill:#43B3CB;" width="42.415" height="4.999"/>
		
			<rect x="26.886" y="84.998" transform="matrix(0.7071 -0.7071 0.7071 0.7071 -50.8898 52.1359)" style="fill:#43B3CB;" width="21.206" height="4.999"/>
		
			<rect x="117.377" y="101.245" transform="matrix(0.7071 -0.7071 0.7071 0.7071 -36.3917 119.6313)" style="fill:#43B3CB;" width="17.67" height="4.999"/>
		<path style="opacity:0.3;fill:#43B3CB;enable-background:new    ;" d="M139.222,76.041h-28.159v8.956h-43.79l0.104-26.915
			L11.768,58.09V12.42c0-2.131,1.678-3.859,3.749-3.859h119.957c2.07,0,3.749,1.728,3.749,3.859L139.222,76.041L139.222,76.041z"/>
		
			<rect x="122.374" y="111.253" transform="matrix(0.7071 -0.7071 0.7071 0.7071 -42.0046 126.0961)" style="fill:#43B3CB;" width="17.67" height="4.999"/>
		
			<rect x="64.375" y="40.01" transform="matrix(0.7071 -0.7071 0.7071 0.7071 -8.098 65.468)" style="fill:#43B3CB;" width="21.206" height="4.999"/>
		
			<rect x="86.87" y="35.01" transform="matrix(0.7071 -0.7071 0.7071 0.7071 2.0255 79.9098)" style="fill:#43B3CB;" width="21.206" height="4.999"/>
		
			<rect x="72.907" y="52.509" transform="matrix(0.7071 -0.7071 0.7071 0.7071 -15.4725 72.6634)" style="fill:#43B3CB;" width="14.138" height="4.999"/>
		
			<rect x="85.384" y="22.533" transform="matrix(0.7071 -0.7071 0.7071 0.7071 9.3834 72.7184)" style="fill:#43B3CB;" width="14.173" height="4.999"/>
		<rect x="17.495" y="15.017" style="fill:#43B3CB;" width="4.999" height="4.999"/>
		<rect x="27.492" y="15.017" style="fill:#43B3CB;" width="4.999" height="4.999"/>
		<rect x="37.49" y="15.017" style="fill:#43B3CB;" width="4.999" height="4.999"/>
		<rect x="4.999" y="72.501" style="opacity:0.3;fill:#43B3CB;enable-background:new    ;" width="59.983" height="54.985"/>
		<rect x="112.469" y="89.996" style="opacity:0.3;fill:#43B3CB;enable-background:new    ;" width="32.491" height="37.49"/>
	</g>
</g>
</svg>
