<svg xmlns="http://www.w3.org/2000/svg" overflow="visible" viewBox="0 0 72 48.139"><path clip-rule="evenodd" fill="#fff" fill-rule="evenodd" image-rendering="optimizeQuality" shape-rendering="geometricPrecision" text-rendering="geometricPrecision" d="M0 0h72v48H0z"/><path fill="#005a9c" d="M0 0h71.86v1.108H0zM0 47.03h71.86v1.108H0z"/><path d="M20.15 8.815l5.758 19.58 5.76-19.58H47.28v1.946L41.402 20.89c2.065.663 3.627 1.868 4.686 3.615 1.06 1.747 1.59 3.8 1.59 6.155 0 2.913-.775 5.362-2.324 7.348-1.55 1.986-3.555 2.978-6.017 2.978-1.854 0-3.47-.59-4.845-1.767-1.377-1.178-2.396-2.773-3.058-4.786l3.256-1.35c.477 1.22 1.106 2.18 1.887 2.88.78.702 1.7 1.052 2.76 1.052 1.112 0 2.052-.622 2.82-1.866.768-1.245 1.152-2.74 1.152-4.488 0-1.933-.412-3.43-1.232-4.488-.954-1.244-2.45-1.866-4.49-1.866h-1.587v-1.906l5.562-9.612H34.85l-.382.65-8.163 27.548h-.397L19.95 21.048l-5.958 19.937h-.397l-9.53-32.17h4.17l5.758 19.58 3.893-13.185-1.906-6.395h4.17z" fill="#005a9c" image-rendering="optimizeQuality" shape-rendering="geometricPrecision" text-rendering="geometricPrecision"/><path d="M68.952 8.815c-.82 0-1.554.295-2.11.86-.592.6-.92 1.377-.92 2.18 0 .8.312 1.544.886 2.127.583.59 1.334.912 2.145.912.793 0 1.562-.32 2.16-.903.575-.556.887-1.3.887-2.136 0-.81-.32-1.57-.878-2.136-.583-.59-1.343-.903-2.17-.903zm2.643 3.065c0 .7-.27 1.35-.77 1.832-.522.507-1.172.777-1.89.777-.675 0-1.342-.28-1.84-.786s-.777-1.157-.777-1.85c0-.69.287-1.367.802-1.89.48-.49 1.13-.75 1.84-.75.726 0 1.376.27 1.883.784.49.49.752 1.148.752 1.882zm-2.558-1.807h-1.3v3.445h.65v-1.47h.642l.7 1.47h.726l-.77-1.57c.5-.102.786-.44.786-.93 0-.624-.473-.945-1.435-.945zm-.12.422c.61 0 .887.17.887.59 0 .406-.278.55-.87.55h-.55v-1.14h.534z" fill="#005a9c"/><g fill="#005a9c" image-rendering="optimizeQuality" shape-rendering="geometricPrecision" text-rendering="geometricPrecision"><path d="M63.84 8.634l.675 4.107-2.39 4.576s-.92-1.94-2.444-3.015c-1.284-.904-2.12-1.1-3.43-.83-1.68.346-3.587 2.356-4.42 4.834-.994 2.965-1.004 4.4-1.04 5.718-.055 2.113.278 3.362.278 3.362s-1.45-2.686-1.438-6.62c.01-2.808.45-5.354 1.75-7.867 1.143-2.21 2.842-3.535 4.35-3.69 1.56-.162 2.79.59 3.743 1.403 1 .854 2.01 2.72 2.01 2.72l2.356-4.696zM64.134 31.872s-1.057 1.89-1.715 2.617c-.66.727-1.838 2.01-3.293 2.65-1.456.64-2.218.762-3.656.624-1.436-.138-2.772-.97-3.24-1.317-.468-.347-1.664-1.37-2.34-2.322-.675-.954-1.732-2.86-1.732-2.86s.59 1.912.958 2.722c.212.466.864 1.894 1.79 3.136.862 1.16 2.54 3.154 5.086 3.604 2.547.45 4.297-.693 4.73-.97.433-.278 1.346-1.042 1.924-1.66.603-.645 1.174-1.468 1.49-1.962.23-.36.607-1.092.607-1.092l-.61-3.17z"/></g></svg>