<?xml version="1.0" encoding="UTF-8" standalone="no"?>
<svg
   xmlns:dc="http://purl.org/dc/elements/1.1/"
   xmlns:cc="http://creativecommons.org/ns#"
   xmlns:rdf="http://www.w3.org/1999/02/22-rdf-syntax-ns#"
   xmlns:svg="http://www.w3.org/2000/svg"
   xmlns="http://www.w3.org/2000/svg"
   xmlns:sodipodi="http://sodipodi.sourceforge.net/DTD/sodipodi-0.dtd"
   xmlns:inkscape="http://www.inkscape.org/namespaces/inkscape"
   version="1.1"
   x="0px"
   y="0px"
   viewBox="-0.5 0.722 100 100"
   enable-background="new -0.5 0.722 100 94.445"
   xml:space="preserve"
   id="svg2"
   inkscape:version="0.91 r13725"
   sodipodi:docname="desktop.svg"
   width="100"
   height="100"><metadata
     id="metadata14"><rdf:RDF><cc:Work
         rdf:about=""><dc:format>image/svg+xml</dc:format><dc:type
           rdf:resource="http://purl.org/dc/dcmitype/StillImage" /><dc:title /></cc:Work></rdf:RDF></metadata><defs
     id="defs12" /><sodipodi:namedview
     pagecolor="#ffffff"
     bordercolor="#666666"
     borderopacity="1"
     objecttolerance="10"
     gridtolerance="10"
     guidetolerance="10"
     inkscape:pageopacity="0"
     inkscape:pageshadow="2"
     inkscape:window-width="1920"
     inkscape:window-height="1017"
     id="namedview10"
     showgrid="false"
     fit-margin-top="0"
     fit-margin-left="0"
     fit-margin-right="0"
     fit-margin-bottom="0"
     inkscape:zoom="4.9976176"
     inkscape:cx="12.141687"
     inkscape:cy="37.722678"
     inkscape:window-x="-8"
     inkscape:window-y="-8"
     inkscape:window-maximized="1"
     inkscape:current-layer="g4" /><circle
     style="fill:#005a9c;fill-opacity:1;stroke:#ffffff;stroke-width:3.05662465;stroke-linejoin:round;stroke-miterlimit:4;stroke-dasharray:none;stroke-opacity:1"
     id="path4142"
     cx="49.5"
     cy="50.722"
     r="48.471687" /><g
     id="g4"
     style="fill:#ffffff;fill-opacity:1"
     transform="matrix(0.73635386,0,0,0.73635386,16.47306,19.659749)"><g
       id="g4191"
       transform="matrix(2.1049868,0,0,2.1049868,-66.754176,-18.934704)"><g
         id="g4195"
         transform="translate(3.112753,-1.1319102)"><path
           inkscape:connector-curvature="0"
           id="path12116-5"
           style="fill:#ffffff;fill-opacity:1"
           d="m 37.292536,42.744731 0,0.0028 9.942578,0 -0.740342,3.306788 c -0.246792,1.135158 -1.283409,1.875473 -2.418567,1.776756 l -0.04935,0 c -0.148075,0 -0.296075,0.148164 -0.296075,0.296072 0,0.148158 0.09883,0.246889 0.197383,0.246889 l 0.04935,0 4.195167,0 0.987225,0 1.480692,0 0.937716,0 4.244517,0 0.04934,0 c 0.0988,-0.04936 0.197384,-0.148256 0.197384,-0.246889 0,-0.148075 -0.148084,-0.296072 -0.296075,-0.296072 l -0.04934,0 c -1.135158,0.04936 -2.1717,-0.690956 -2.418408,-1.776756 l -0.740509,-3.306788 12.654124,0 0,-0.0028 -27.926809,0 z M 30.700854,14.540666 c -0.592216,0 -1.036414,0.444114 -1.036414,1.036414 l 0,25.763951 c 0,0.592217 0.444198,1.036414 1.036414,1.036414 l 16.53426,0 -5.02e-4,0.0025 5.331086,0 -5.02e-4,-0.0025 16.534259,0 c 0.5923,0 1.036583,-0.444197 1.036583,-1.036414 l 0,-25.763951 c 0.0988,-0.5923 -0.345265,-1.036414 -0.937566,-1.036414 l -38.497643,0 z m 0.690998,1.628721 37.214345,0 0,24.381793 -0.04935,0 -37.164995,0 0,-24.381793 z m 18.515263,24.641591 a 0.62948902,0.62948902 0 0 1 0.629562,0.629397 0.62948902,0.62948902 0 0 1 -0.629562,0.629561 0.62948902,0.62948902 0 0 1 -0.629402,-0.629561 0.62948902,0.62948902 0 0 1 0.629402,-0.629397 z" /><rect
           style="opacity:1;fill:none;fill-opacity:1;stroke:#ffffff;stroke-width:3.15335059;stroke-linejoin:round;stroke-miterlimit:4;stroke-dasharray:none;stroke-opacity:1"
           id="rect4153"
           width="36.328892"
           height="22.435539"
           x="31.548073"
           y="16.663277"
           ry="0" /></g></g></g></svg>