<?xml version="1.0" encoding="UTF-8" standalone="no"?>
<svg
   xmlns:dc="http://purl.org/dc/elements/1.1/"
   xmlns:cc="http://creativecommons.org/ns#"
   xmlns:rdf="http://www.w3.org/1999/02/22-rdf-syntax-ns#"
   xmlns:svg="http://www.w3.org/2000/svg"
   xmlns="http://www.w3.org/2000/svg"
   xmlns:sodipodi="http://sodipodi.sourceforge.net/DTD/sodipodi-0.dtd"
   xmlns:inkscape="http://www.inkscape.org/namespaces/inkscape"
   version="1.1"
   x="0px"
   y="0px"
   viewBox="-0.5 0.722 100 100"
   enable-background="new -0.5 0.722 100 94.445"
   xml:space="preserve"
   id="svg2"
   inkscape:version="0.91 r13725"
   sodipodi:docname="desktop-mobile.svg"
   width="100"
   height="100"><metadata
     id="metadata14"><rdf:RDF><cc:Work
         rdf:about=""><dc:format>image/svg+xml</dc:format><dc:type
           rdf:resource="http://purl.org/dc/dcmitype/StillImage" /><dc:title /></cc:Work></rdf:RDF></metadata><defs
     id="defs12" /><sodipodi:namedview
     pagecolor="#ffffff"
     bordercolor="#666666"
     borderopacity="1"
     objecttolerance="10"
     gridtolerance="10"
     guidetolerance="10"
     inkscape:pageopacity="0"
     inkscape:pageshadow="2"
     inkscape:window-width="1920"
     inkscape:window-height="1017"
     id="namedview10"
     showgrid="false"
     fit-margin-top="0"
     fit-margin-left="0"
     fit-margin-right="0"
     fit-margin-bottom="0"
     inkscape:zoom="7.0676986"
     inkscape:cx="18.731866"
     inkscape:cy="38.2725"
     inkscape:window-x="-8"
     inkscape:window-y="-8"
     inkscape:window-maximized="1"
     inkscape:current-layer="svg2" /><circle
     style="fill:#005a9c;fill-opacity:1;stroke:#ffffff;stroke-width:3.05662465;stroke-linejoin:round;stroke-miterlimit:4;stroke-dasharray:none;stroke-opacity:1"
     id="path4142"
     cx="49.5"
     cy="50.722"
     r="48.471687" /><g
     id="g4238"
     transform="matrix(0.9528676,0,0,0.9528676,4.4225336,0.60464699)"><g
       transform="matrix(1.2273403,0,0,1.2273403,-25.034499,7.6207791)"
       id="g4191"><g
         transform="translate(3.112753,-1.1319102)"
         id="g4195"><path
           d="m 37.292536,42.744731 0,0.0028 9.942578,0 -0.740342,3.306788 c -0.246792,1.135158 -1.283409,1.875473 -2.418567,1.776756 l -0.04935,0 c -0.148075,0 -0.296075,0.148164 -0.296075,0.296072 0,0.148158 0.09883,0.246889 0.197383,0.246889 l 0.04935,0 4.195167,0 0.987225,0 1.480692,0 0.937716,0 4.244517,0 0.04934,0 c 0.0988,-0.04936 0.197384,-0.148256 0.197384,-0.246889 0,-0.148075 -0.148084,-0.296072 -0.296075,-0.296072 l -0.04934,0 c -1.135158,0.04936 -2.1717,-0.690956 -2.418408,-1.776756 l -0.740509,-3.306788 12.654124,0 0,-0.0028 -27.926809,0 z M 30.700854,14.540666 c -0.592216,0 -1.036414,0.444114 -1.036414,1.036414 l 0,25.763951 c 0,0.592217 0.444198,1.036414 1.036414,1.036414 l 16.53426,0 -5.02e-4,0.0025 5.331086,0 -5.02e-4,-0.0025 16.534259,0 c 0.5923,0 1.036583,-0.444197 1.036583,-1.036414 l 0,-25.763951 c 0.0988,-0.5923 -0.345265,-1.036414 -0.937566,-1.036414 l -38.497643,0 z m 0.690998,1.628721 37.214345,0 0,24.381793 -0.04935,0 -37.164995,0 0,-24.381793 z m 18.515263,24.641591 a 0.62948902,0.62948902 0 0 1 0.629562,0.629397 0.62948902,0.62948902 0 0 1 -0.629562,0.629561 0.62948902,0.62948902 0 0 1 -0.629402,-0.629561 0.62948902,0.62948902 0 0 1 0.629402,-0.629397 z"
           style="fill:#ffffff;fill-opacity:1"
           id="path12116"
           inkscape:connector-curvature="0" /><rect
           ry="0"
           y="16.663277"
           x="31.548073"
           height="22.435539"
           width="36.328892"
           id="rect4153"
           style="opacity:1;fill:none;fill-opacity:1;stroke:#ffffff;stroke-width:3.15335059;stroke-linejoin:round;stroke-miterlimit:4;stroke-dasharray:none;stroke-opacity:1" /></g></g><g
       transform="matrix(1.0429338,0,0,1.0429338,-2.2245599,-1.4166776)"
       id="g4234"><path
         sodipodi:nodetypes="ccccccccccccsccsccccccccccscccccccccccccccc"
         inkscape:connector-curvature="0"
         id="path11691"
         d="m 64.946897,33.004998 0,0 c -3.431213,-0.0051 -7.036058,-0.01463 -9.72282,0 -2.512538,0.01371 -3.008597,3.60745 -3.106358,4.729379 l -0.03987,0 0,0.487335 -0.264104,35.381252 0,0.344837 0,0 0,0.306833 0,0.344835 0.04088,0 c 0.07591,0.855352 0.541052,4.512259 3.166231,4.526558 2.743037,0.01495 6.430039,0.0051 9.926128,0 0.150148,-2.3e-4 0.277089,2.17e-4 0.426511,0 3.496433,0.0051 7.183435,0.01495 9.926129,0 2.95509,-0.0161 2.92304,-4.952142 2.92304,-4.952142 l -0.0209,0 0,-0.203289 c 0.01508,-0.256851 0.0209,-0.449331 0.0209,-0.449331 l -0.01902,0 0.07981,-34.971823 c 0,0 3.39e-4,-0.136879 0,-0.162436 -1.02e-4,-0.0032 0,-0.01689 0,-0.0209 l 0,-0.46833 c 0,0 3.39e-4,-0.136878 0,-0.162439 -0.01072,-0.461473 -0.18385,-4.715049 -2.983834,-4.730319 -2.860841,-0.0156 -6.72279,-0.0051 -10.352641,0 z m -2.599066,4.410182 5.729209,0 1.389784,0.963258 7.886596,0 0,36.72735 -24.205941,0 0,-36.72735 7.840002,0 z m 2.700721,38.176035 c 0.792799,-5e-5 1.435498,0.688572 1.435403,1.537988 9.5e-5,0.849408 -0.642604,1.538033 -1.435403,1.537984 -0.792754,4.9e-5 -1.435453,-0.688576 -1.435357,-1.537984 -9.6e-5,-0.849416 0.642603,-1.538038 1.435357,-1.537988 z"
         style="fill:#ffffff;fill-opacity:1;stroke:#000000;stroke-width:0;stroke-miterlimit:4;stroke-dasharray:none;stroke-opacity:1" /><rect
         style="opacity:1;fill:none;fill-opacity:1;stroke:#ffffff;stroke-width:2.51850796;stroke-linejoin:miter;stroke-miterlimit:4;stroke-dasharray:none;stroke-opacity:1"
         id="rect4153-0"
         width="21.941582"
         height="37.917244"
         x="54.188606"
         y="36.017822"
         ry="0" /></g></g></svg>