<?xml version="1.0" encoding="UTF-8" standalone="no"?>
<svg
   xmlns:dc="http://purl.org/dc/elements/1.1/"
   xmlns:cc="http://creativecommons.org/ns#"
   xmlns:rdf="http://www.w3.org/1999/02/22-rdf-syntax-ns#"
   xmlns:svg="http://www.w3.org/2000/svg"
   xmlns="http://www.w3.org/2000/svg"
   xmlns:sodipodi="http://sodipodi.sourceforge.net/DTD/sodipodi-0.dtd"
   xmlns:inkscape="http://www.inkscape.org/namespaces/inkscape"
   version="1.1"
   x="0px"
   y="0px"
   viewBox="-0.5 0.722 100 100"
   enable-background="new -0.5 0.722 100 94.445"
   xml:space="preserve"
   id="svg2"
   inkscape:version="0.91 r13725"
   sodipodi:docname="flag.svg"
   width="100"
   height="100"><metadata
     id="metadata14"><rdf:RDF><cc:Work
         rdf:about=""><dc:format>image/svg+xml</dc:format><dc:type
           rdf:resource="http://purl.org/dc/dcmitype/StillImage" /><dc:title /></cc:Work></rdf:RDF></metadata><defs
     id="defs12" /><sodipodi:namedview
     pagecolor="#ffffff"
     bordercolor="#666666"
     borderopacity="1"
     objecttolerance="10"
     gridtolerance="10"
     guidetolerance="10"
     inkscape:pageopacity="0"
     inkscape:pageshadow="2"
     inkscape:window-width="1920"
     inkscape:window-height="1017"
     id="namedview10"
     showgrid="false"
     fit-margin-top="0"
     fit-margin-left="0"
     fit-margin-right="0"
     fit-margin-bottom="0"
     inkscape:zoom="2.4988088"
     inkscape:cx="-124.48313"
     inkscape:cy="50"
     inkscape:window-x="-8"
     inkscape:window-y="-8"
     inkscape:window-maximized="1"
     inkscape:current-layer="g4" /><circle
     style="fill:#005a9c;fill-opacity:1;stroke:#ffffff;stroke-width:3.05662465;stroke-linejoin:round;stroke-miterlimit:4;stroke-dasharray:none;stroke-opacity:1"
     id="path4142"
     cx="49.5"
     cy="50.722"
     r="48.471687" /><g
     id="g4"
     style="fill:#ffffff;fill-opacity:1"
     transform="matrix(0.73635386,0,0,0.73635386,16.47306,19.659749)"><g
       id="g4136"
       transform="matrix(0.93021838,0,0,0.93021838,3.6351499,-1.4972338)"><path
         inkscape:connector-curvature="0"
         style="clip-rule:evenodd;fill:#ffffff;fill-opacity:1;fill-rule:evenodd"
         id="path6"
         d="m 7.841911,12.029763 c 2.483642,-0.672894 5.044926,0.80319 5.716036,3.319852 l 18.097656,68.206002 c 0.665755,2.513985 -0.798728,5.099364 -3.293972,5.770474 -2.477395,0.674679 -5.044033,-0.817469 -5.715143,-3.330561 L 4.5550791,17.792205 c -0.6702174,-2.523802 0.80319,-5.092224 3.2868319,-5.762442 z" /><path
         inkscape:connector-curvature="0"
         style="clip-rule:evenodd;fill:#ffffff;fill-opacity:1;fill-rule:evenodd"
         id="path8"
         d="M 22.627007,9.3801229 C 23.755951,7.427781 34.282774,-8.7937157 52.357538,2.6281027 70.46727,14.04576 82.251255,22.20563 90.063946,8.547567 c 0,0 -1.951511,11.056328 -5.304204,16.916682 C 81.412037,31.325434 70.915184,39.352096 57.919005,35.933625 45.89608,32.77075 37.051018,37.647023 33.450218,48.510198 c 0,0 -9.96568,-36.07793 -10.823211,-39.1300751 z" /></g></g></svg>