<?xml version="1.0" encoding="UTF-8" standalone="no"?>
<svg
   xmlns:dc="http://purl.org/dc/elements/1.1/"
   xmlns:cc="http://creativecommons.org/ns#"
   xmlns:rdf="http://www.w3.org/1999/02/22-rdf-syntax-ns#"
   xmlns:svg="http://www.w3.org/2000/svg"
   xmlns="http://www.w3.org/2000/svg"
   xmlns:sodipodi="http://sodipodi.sourceforge.net/DTD/sodipodi-0.dtd"
   xmlns:inkscape="http://www.inkscape.org/namespaces/inkscape"
   version="1.1"
   x="0px"
   y="0px"
   viewBox="-0.5 0.722 154.99996 100.00018"
   enable-background="new -0.5 0.722 100 94.445"
   xml:space="preserve"
   id="svg2"
   inkscape:version="0.91 r13725"
   sodipodi:docname="partial.svg"
   width="154.99995"
   height="100.00021"><metadata
     id="metadata14"><rdf:RDF><cc:Work
         rdf:about=""><dc:format>image/svg+xml</dc:format><dc:type
           rdf:resource="http://purl.org/dc/dcmitype/StillImage" /><dc:title></dc:title></cc:Work></rdf:RDF></metadata><defs
     id="defs12" /><sodipodi:namedview
     pagecolor="#ffffff"
     bordercolor="#666666"
     borderopacity="1"
     objecttolerance="10"
     gridtolerance="10"
     guidetolerance="10"
     inkscape:pageopacity="0"
     inkscape:pageshadow="2"
     inkscape:window-width="1920"
     inkscape:window-height="1017"
     id="namedview10"
     showgrid="false"
     fit-margin-top="0"
     fit-margin-left="0"
     fit-margin-right="0"
     fit-margin-bottom="0"
     inkscape:zoom="2.4988088"
     inkscape:cx="-68.093296"
     inkscape:cy="91.252826"
     inkscape:window-x="-8"
     inkscape:window-y="-8"
     inkscape:window-maximized="1"
     inkscape:current-layer="svg2"><inkscape:grid
       type="xygrid"
       id="grid4163"
       originx="99.999128"
       originy="0.52841464" /></sodipodi:namedview><path
     style="opacity:1;fill:#e8941d;fill-opacity:1;stroke:#ffffff;stroke-width:3.11404467;stroke-linecap:butt;stroke-linejoin:round;stroke-miterlimit:4;stroke-dasharray:none;stroke-opacity:1"
     d="m 8.1933548,2.2790109 c -3.9535945,0 -7.1363325,2.9830835 -7.1363325,6.6886671 l 0,83.508828 c 0,3.705583 3.182738,6.688666 7.1363325,6.688666 l 142.3894152,0 c 0.8166,0 1.59785,-0.134164 2.32742,-0.368773 A 51.741265,48.495508 0 0 1 107.58782,50.721116 51.741265,48.495508 0 0 1 152.9435,2.657541 c -0.73913,-0.2415835 -1.53155,-0.3785301 -2.36073,-0.3785301 l -142.3894152,0 z"
     id="rect4137"
     inkscape:connector-curvature="0" /><g
     style="font-style:normal;font-variant:normal;font-weight:normal;font-stretch:normal;font-size:103.99595642px;line-height:100%;font-family:'HP Simplified';-inkscape-font-specification:'HP Simplified, Normal';text-align:center;letter-spacing:0px;word-spacing:0px;writing-mode:lr-tb;text-anchor:middle;fill:#ffffff;fill-opacity:1;stroke:none;stroke-width:1px;stroke-linecap:butt;stroke-linejoin:miter;stroke-opacity:1"
     id="text4139"
     transform="matrix(0.78807362,0,0,0.78807362,90.787799,9.909789)"><path
       d="m -46.90109,63.757025 q -3.015883,0 -3.015883,-5.199798 0,-2.391907 0.51998,-4.263834 0.51998,-1.871927 1.559939,-3.639859 1.143956,-1.767931 2.807891,-3.535862 1.767931,-1.871927 4.055842,-4.055842 2.07992,-1.975924 3.431867,-3.431867 1.455943,-1.559939 2.287911,-2.807891 0.831968,-1.351947 1.143956,-2.599899 0.415983,-1.351947 0.415983,-3.119878 0,-5.095802 -2.80789,-7.175721 -2.703895,-2.183915 -8.527669,-2.183915 -3.84785,0 -7.071725,0.623975 -3.223875,0.51998 -4.679818,0.51998 -1.351947,0 -1.767931,-0.623976 -0.415984,-0.623975 -0.415984,-1.767931 l 0,-5.095802 q 3.015883,-1.143955 7.071725,-2.079919 4.159838,-0.935963 9.359636,-0.935963 3.84785,0 7.279717,0.831967 3.535863,0.727972 6.239757,2.703895 2.703895,1.871927 4.263835,5.199798 1.663935,3.32787 1.663935,8.423672 0,3.119879 -0.623976,5.615782 -0.623976,2.495903 -1.871927,4.679818 -1.143956,2.079919 -2.807891,3.951846 -1.663935,1.767932 -3.639858,3.639859 -3.015883,2.703895 -4.783814,4.575822 -1.767932,1.767931 -2.807891,3.431866 -1.03996,1.663936 -1.455944,3.535863 -0.415983,1.871927 -0.519979,4.783814 l -5.303794,0 z m 9.047648,15.703389 q 0,3.639859 -1.663935,5.199798 -1.663935,1.455944 -5.303794,1.455944 -3.743854,0 -5.40779,-1.455944 -1.559939,-1.559939 -1.559939,-5.199798 0,-3.535862 1.663935,-4.991806 1.663936,-1.559939 5.303794,-1.559939 3.639859,0 5.303794,1.559939 1.663935,1.455944 1.663935,4.991806 z"
       style="font-style:normal;font-variant:normal;font-weight:normal;font-stretch:normal;font-size:103.99595642px;line-height:100%;font-family:'HP Simplified';-inkscape-font-specification:'HP Simplified, Normal';text-align:center;writing-mode:lr-tb;text-anchor:middle;fill:#ffffff"
       id="path4156"
       inkscape:connector-curvature="0" /></g></svg>