<?xml version="1.0" encoding="UTF-8" standalone="no"?>
<svg
   xmlns:dc="http://purl.org/dc/elements/1.1/"
   xmlns:cc="http://creativecommons.org/ns#"
   xmlns:rdf="http://www.w3.org/1999/02/22-rdf-syntax-ns#"
   xmlns:svg="http://www.w3.org/2000/svg"
   xmlns="http://www.w3.org/2000/svg"
   xmlns:sodipodi="http://sodipodi.sourceforge.net/DTD/sodipodi-0.dtd"
   xmlns:inkscape="http://www.inkscape.org/namespaces/inkscape"
   version="1.1"
   x="0px"
   y="0px"
   viewBox="-0.5 0.722 60 60"
   enable-background="new -0.5 0.722 100 94.445"
   xml:space="preserve"
   id="svg2"
   inkscape:version="0.91 r13725"
   sodipodi:docname="about.svg"
   width="60"
   height="60"><metadata
     id="metadata14"><rdf:RDF><cc:Work
         rdf:about=""><dc:format>image/svg+xml</dc:format><dc:type
           rdf:resource="http://purl.org/dc/dcmitype/StillImage" /><dc:title></dc:title></cc:Work></rdf:RDF></metadata><defs
     id="defs12" /><sodipodi:namedview
     pagecolor="#ffffff"
     bordercolor="#666666"
     borderopacity="1"
     objecttolerance="10"
     gridtolerance="10"
     guidetolerance="10"
     inkscape:pageopacity="0"
     inkscape:pageshadow="2"
     inkscape:window-width="1920"
     inkscape:window-height="1017"
     id="namedview10"
     showgrid="false"
     fit-margin-top="0"
     fit-margin-left="0"
     fit-margin-right="0"
     fit-margin-bottom="0"
     inkscape:zoom="4.9976176"
     inkscape:cx="88.461906"
     inkscape:cy="26.883003"
     inkscape:window-x="-8"
     inkscape:window-y="-8"
     inkscape:window-maximized="1"
     inkscape:current-layer="svg2" /><g
     id="g4145"
     transform="matrix(0.59999999,0,0,0.59999999,-0.50014355,0.22934624)"><circle
       r="43.68932"
       cy="50.821091"
       cx="50.00024"
       id="path4142"
       style="fill:#005a9c;fill-opacity:1;stroke:#ffffff;stroke-width:2.62135911;stroke-linejoin:round;stroke-miterlimit:4;stroke-dasharray:none;stroke-opacity:1" /><g
       id="text4136"
       style="font-style:normal;font-variant:normal;font-weight:normal;font-stretch:normal;font-size:87.5px;line-height:125%;font-family:'Open Sans';-inkscape-font-specification:'Open Sans, Normal';text-align:start;letter-spacing:0px;word-spacing:0px;writing-mode:lr-tb;text-anchor:start;fill:#ffffff;fill-opacity:1;stroke:none;stroke-width:1px;stroke-linecap:butt;stroke-linejoin:miter;stroke-opacity:1"><path
         id="path4143"
         style="font-style:normal;font-variant:normal;font-weight:normal;font-stretch:normal;font-size:87.5px;line-height:125%;font-family:'Open Sans';-inkscape-font-specification:'Open Sans, Normal';text-align:start;writing-mode:lr-tb;text-anchor:start"
         d="m 44.146969,64.663864 0,-2.307129 q 0,-4.998779 1.538086,-8.203125 1.538086,-3.24707 5.725097,-6.835937 5.810547,-4.91333 7.305909,-7.391358 1.538086,-2.478027 1.538086,-5.981445 0,-4.35791 -2.819825,-6.707764 -2.777099,-2.392578 -8.032226,-2.392578 -3.375244,0 -6.57959,0.811768 -3.204346,0.769043 -7.348633,2.862549 l -2.520752,-5.767823 q 8.074951,-4.229736 16.876221,-4.229736 8.1604,0 12.689209,4.016113 4.528808,4.016114 4.528808,11.322022 0,3.118896 -0.854492,5.511474 -0.811767,2.349854 -2.435302,4.486084 -1.623536,2.093506 -7.006836,6.793213 -4.315186,3.674317 -5.725098,6.109619 -1.367188,2.435303 -1.367188,6.494141 l 0,1.409912 -5.511474,0 z m -2.093506,12.689209 q 0,-5.810547 5.126953,-5.810547 2.478027,0 3.80249,1.495362 1.367188,1.495361 1.367188,4.315185 0,2.734375 -1.367188,4.272461 -1.367187,1.495361 -3.80249,1.495361 -2.22168,0 -3.674316,-1.324463 -1.452637,-1.367187 -1.452637,-4.443359 z"
         inkscape:connector-curvature="0" /></g><circle
       r="48.886169"
       cy="50.821091"
       cx="50.00024"
       id="path4140"
       style="opacity:1;fill:none;fill-opacity:1;stroke:#005c9c;stroke-width:2.22766328;stroke-linejoin:round;stroke-miterlimit:4;stroke-dasharray:none;stroke-opacity:1" /></g></svg>