<?xml version="1.0" encoding="UTF-8" standalone="no"?>
<svg
   xmlns:dc="http://purl.org/dc/elements/1.1/"
   xmlns:cc="http://creativecommons.org/ns#"
   xmlns:rdf="http://www.w3.org/1999/02/22-rdf-syntax-ns#"
   xmlns:svg="http://www.w3.org/2000/svg"
   xmlns="http://www.w3.org/2000/svg"
   xmlns:sodipodi="http://sodipodi.sourceforge.net/DTD/sodipodi-0.dtd"
   xmlns:inkscape="http://www.inkscape.org/namespaces/inkscape"
   version="1.1"
   x="0px"
   y="0px"
   viewBox="-0.5 0.722 100 100"
   enable-background="new -0.5 0.722 100 94.445"
   xml:space="preserve"
   id="svg2"
   inkscape:version="0.91 r13725"
   sodipodi:docname="informative.svg"
   width="100"
   height="100"><metadata
     id="metadata14"><rdf:RDF><cc:Work
         rdf:about=""><dc:format>image/svg+xml</dc:format><dc:type
           rdf:resource="http://purl.org/dc/dcmitype/StillImage" /><dc:title /></cc:Work></rdf:RDF></metadata><defs
     id="defs12" /><sodipodi:namedview
     pagecolor="#ffffff"
     bordercolor="#666666"
     borderopacity="1"
     objecttolerance="10"
     gridtolerance="10"
     guidetolerance="10"
     inkscape:pageopacity="0"
     inkscape:pageshadow="2"
     inkscape:window-width="1920"
     inkscape:window-height="1017"
     id="namedview10"
     showgrid="false"
     fit-margin-top="0"
     fit-margin-left="0"
     fit-margin-right="0"
     fit-margin-bottom="0"
     inkscape:zoom="4.9976176"
     inkscape:cx="-14.351038"
     inkscape:cy="53.644305"
     inkscape:window-x="1912"
     inkscape:window-y="-8"
     inkscape:window-maximized="1"
     inkscape:current-layer="svg2" /><circle
     style="fill:#4f4c48;fill-opacity:1;stroke:#ffffff;stroke-width:2.91262126;stroke-linejoin:round;stroke-miterlimit:4;stroke-dasharray:none;stroke-opacity:1"
     id="path4142"
     cx="49.5"
     cy="50.722"
     r="48.54369" /><g
     style="font-style:italic;font-variant:normal;font-weight:normal;font-stretch:normal;font-size:100.79225159px;line-height:125%;font-family:'Calisto MT';-inkscape-font-specification:'Calisto MT, Italic';text-align:start;letter-spacing:0px;word-spacing:0px;writing-mode:lr-tb;text-anchor:start;fill:#ffffff;fill-opacity:1;stroke:none;stroke-width:1px;stroke-linecap:butt;stroke-linejoin:miter;stroke-opacity:1"
     id="text4135"><path
       d="m 54.396889,69.613754 1.919383,2.116244 q -4.478562,4.281702 -9.449273,7.72675 -4.970712,3.395832 -7.677535,3.395832 -1.082729,0 -1.919384,-0.836654 -0.836654,-0.836654 -0.836654,-2.116244 0,-1.919383 1.427234,-6.34873 l 3.641907,-10.187498 q 0.344505,-1.131945 3.051328,-9.400059 2.706823,-8.268114 2.706823,-8.612619 0,-1.230374 -1.033514,-1.230374 -0.738224,0 -2.460748,1.279589 -1.722524,1.230374 -2.952898,2.657608 L 39.484754,49.386403 37.6638,47.368589 q 5.266001,-5.413646 9.793778,-8.563404 4.527777,-3.149758 6.840881,-3.149758 2.017813,0 2.017813,1.919384 0,1.131944 -1.131944,4.921497 -1.131944,3.740337 -2.952898,9.203199 -1.771739,5.462861 -2.756038,8.366544 -1.279589,3.346618 -2.756038,7.972824 -1.476449,4.626207 -1.476449,5.610507 0,1.230374 0.984299,1.230374 1.870169,0 6.742451,-4.232487 0.246074,-0.147645 0.738224,-0.49215 0.49215,-0.39372 0.68901,-0.541365 z m 4.035627,-55.022332 q 1.673309,0 2.903683,1.279589 1.230374,1.279589 1.230374,3.149758 0,2.559178 -1.722524,4.773851 -1.722524,2.214674 -3.937197,2.214674 -1.673309,0 -2.854468,-1.476449 -1.181159,-1.525664 -1.181159,-3.395833 0,-1.624094 0.689009,-3.051328 0.738225,-1.476449 2.017814,-2.460748 1.279589,-1.033514 2.854468,-1.033514 z"
       style="font-style:italic;font-variant:normal;font-weight:normal;font-stretch:normal;font-size:100.79225159px;line-height:125%;font-family:'Calisto MT';-inkscape-font-specification:'Calisto MT, Italic';text-align:start;writing-mode:lr-tb;text-anchor:start"
       id="path4138" /></g></svg>