<?xml version="1.0" encoding="UTF-8" standalone="no"?>
<svg
   xmlns:osb="http://www.openswatchbook.org/uri/2009/osb"
   xmlns:dc="http://purl.org/dc/elements/1.1/"
   xmlns:cc="http://creativecommons.org/ns#"
   xmlns:rdf="http://www.w3.org/1999/02/22-rdf-syntax-ns#"
   xmlns:svg="http://www.w3.org/2000/svg"
   xmlns="http://www.w3.org/2000/svg"
   xmlns:sodipodi="http://sodipodi.sourceforge.net/DTD/sodipodi-0.dtd"
   xmlns:inkscape="http://www.inkscape.org/namespaces/inkscape"
   viewBox="0 0 60 60"
   id="svg2"
   version="1.1"
   inkscape:version="0.91 r13725"
   sodipodi:docname="media-app.svg">
  <metadata
     id="metadata12">
    <rdf:RDF>
      <cc:Work
         rdf:about="">
        <dc:format>image/svg+xml</dc:format>
        <dc:type
           rdf:resource="http://purl.org/dc/dcmitype/StillImage" />
        <dc:title>HTML5 Multimedia Logo</dc:title>
      </cc:Work>
    </rdf:RDF>
  </metadata>
  <defs
     id="defs10">
    <linearGradient
       id="linearGradient5771"
       osb:paint="solid">
      <stop
         style="stop-color:#ff0000;stop-opacity:1;"
         offset="0"
         id="stop5773" />
    </linearGradient>
  </defs>
  <sodipodi:namedview
     pagecolor="#ffffff"
     bordercolor="#666666"
     borderopacity="1"
     objecttolerance="10"
     gridtolerance="10"
     guidetolerance="10"
     inkscape:pageopacity="0"
     inkscape:pageshadow="2"
     inkscape:window-width="1920"
     inkscape:window-height="1017"
     id="namedview8"
     showgrid="false"
     inkscape:zoom="5.0589496"
     inkscape:cx="12.057444"
     inkscape:cy="10.942471"
     inkscape:window-x="-8"
     inkscape:window-y="-8"
     inkscape:window-maximized="1"
     inkscape:current-layer="g5827"
     fit-margin-top="0"
     fit-margin-left="0"
     fit-margin-right="0"
     fit-margin-bottom="0" />
  <title
     id="title4">HTML5 Multimedia Logo</title>
  <g
     id="g5827"
     transform="translate(-56.950655,-19.118202)">
    <g
       transform="matrix(0.15455136,0,0,0.15522188,8.2264514,37.176056)"
       id="g4291"
       style="stroke:#eaf2b3;stroke-opacity:1">
      <ellipse
         style="fill:none;fill-opacity:1;stroke:#eaf2b3;stroke-width:14.49928379;stroke-linejoin:round;stroke-miterlimit:4;stroke-dasharray:none;stroke-opacity:1"
         id="path4144"
         ry="173.5081"
         rx="165.73177"
         cy="64.421997"
         cx="488.24362" />
      <path
         style="fill:none;fill-opacity:1;stroke:#eaf2b3;stroke-width:9.9940443;stroke-linejoin:round;stroke-miterlimit:4;stroke-dasharray:none;stroke-opacity:1"
         id="path4152"
         sodipodi:type="arc"
         sodipodi:cx="535.92896"
         sodipodi:cy="64.846291"
         sodipodi:rx="132.81931"
         sodipodi:ry="201.51694"
         sodipodi:start="2.1189907"
         sodipodi:end="4.1578336"
         d="M 466.71057,236.83433 A 132.81931,201.51694 0 0 1 403.11032,65.487215 132.81931,201.51694 0 0 1 465.99091,-106.47024"
         sodipodi:open="true" />
      <path
         style="fill:none;fill-opacity:1;stroke:#eaf2b3;stroke-width:6.75129175;stroke-linejoin:round;stroke-miterlimit:4;stroke-dasharray:none;stroke-opacity:1"
         id="path4152-1"
         sodipodi:type="arc"
         sodipodi:cx="236.19325"
         sodipodi:cy="490.03986"
         sodipodi:rx="89.239647"
         sodipodi:ry="136.86926"
         sodipodi:start="2.1189907"
         sodipodi:end="4.1578336"
         d="M 189.68628,606.85324 A 89.239647,136.86926 0 0 1 146.95406,490.47517 89.239647,136.86926 0 0 1 189.20275,373.68255"
         sodipodi:open="true"
         transform="matrix(0,1,1,0,0,0)" />
      <path
         style="fill:none;fill-opacity:1;stroke:#eaf2b3;stroke-width:9.9940443;stroke-linejoin:round;stroke-miterlimit:4;stroke-dasharray:none;stroke-opacity:1"
         id="path4152-4"
         sodipodi:type="arc"
         sodipodi:cx="-443.86545"
         sodipodi:cy="66.76506"
         sodipodi:rx="132.81931"
         sodipodi:ry="201.51694"
         sodipodi:start="2.1189907"
         sodipodi:end="4.1578336"
         d="M -513.08384,238.7531 A 132.81931,201.51694 0 0 1 -576.68408,67.405985 132.81931,201.51694 0 0 1 -513.80349,-104.55147"
         sodipodi:open="true"
         transform="scale(-1,1)" />
      <path
         style="fill:none;fill-opacity:1;stroke:#eaf2b3;stroke-width:6.75129175;stroke-linejoin:round;stroke-miterlimit:4;stroke-dasharray:none;stroke-opacity:1"
         id="path4152-1-7"
         sodipodi:type="arc"
         sodipodi:cx="105.69588"
         sodipodi:cy="486.19827"
         sodipodi:rx="89.239647"
         sodipodi:ry="136.86926"
         sodipodi:start="2.1189907"
         sodipodi:end="4.1578336"
         d="M 59.1889,603.01166 A 89.239647,136.86926 0 0 1 16.456682,486.63359 89.239647,136.86926 0 0 1 58.70537,369.84097"
         sodipodi:open="true"
         transform="matrix(0,-1,1,0,0,0)" />
      <path
         style="fill:none;fill-opacity:1;stroke:#eaf2b3;stroke-width:5.95430517;stroke-linejoin:round;stroke-miterlimit:4;stroke-dasharray:none;stroke-opacity:1"
         id="path4152-1-7-6"
         sodipodi:type="arc"
         sodipodi:cx="16.901848"
         sodipodi:cy="484.30429"
         sodipodi:rx="51.022728"
         sodipodi:ry="186.20381"
         sodipodi:start="2.1189907"
         sodipodi:end="4.1578336"
         d="M -9.6884956,643.22308 A 51.022728,186.20381 0 0 1 -34.120622,484.89651 51.022728,186.20381 0 0 1 -9.9649536,326.00598"
         sodipodi:open="true"
         transform="matrix(0,-1,1,0,0,0)" />
      <path
         style="fill:none;fill-opacity:1;stroke:#eaf2b3;stroke-width:5.95430517;stroke-linejoin:round;stroke-miterlimit:4;stroke-dasharray:none;stroke-opacity:1"
         id="path4152-1-7-6-9"
         sodipodi:type="arc"
         sodipodi:cx="134.31297"
         sodipodi:cy="489.35422"
         sodipodi:rx="51.022728"
         sodipodi:ry="186.20381"
         sodipodi:start="2.1189907"
         sodipodi:end="4.1578336"
         d="M 107.72263,648.27301 A 51.022728,186.20381 0 0 1 83.290503,489.94644 51.022728,186.20381 0 0 1 107.44617,331.05591"
         sodipodi:open="true"
         transform="matrix(0,1,1,0,0,0)" />
    </g>
    <rect
       ry="0"
       y="45.072403"
       x="80.496033"
       height="33.045769"
       width="35.454624"
       id="rect4300"
       style="fill:#ffffff;fill-opacity:1;stroke:none;stroke-width:6.19735765;stroke-linejoin:round;stroke-miterlimit:4;stroke-dasharray:none;stroke-opacity:1" />
    <path
       style="stroke:#95a500;stroke-opacity:1;fill:#eaf2b3;fill-opacity:1"
       inkscape:connector-curvature="0"
       id="path6"
       d="m 115.8736,45.383128 -7.79136,0 -5.51344,6.585647 7.79136,0 z m -17.613984,6.585647 5.498924,-6.585647 -7.791355,0 -5.513439,6.585647 z m 12.115054,19.235648 -24.317167,0 0,-19.166142 5.571475,-6.655153 -7.805868,0 -3.264536,3.909685 0,28.514631 35.329536,0 0,-25.838669 -5.51344,0 z" />
  </g>
</svg>
