<svg id="Layer_1" data-name="Layer 1" xmlns="http://www.w3.org/2000/svg" viewBox="0 0 58 54"><defs><style>.cls-1,.cls-2,.cls-4{fill:none;}.cls-1,.cls-2,.cls-3,.cls-4{stroke:#512DA8;stroke-width:1px;}.cls-1,.cls-3,.cls-4{stroke-linecap:round;}.cls-1,.cls-2{stroke-miterlimit:10;}.cls-3{fill:#D1C4E9;}.cls-3,.cls-4{stroke-linejoin:round;}</style></defs><title>synchronized-content-icon</title><path class="cls-1" d="M73.17,61a12.21,12.21,0,0,0-11.75-9,12.81,12.81,0,0,0-12.25,9" transform="translate(-21.17 -24)"/><path class="cls-1" d="M49.17,67A12.5,12.5,0,0,0,61.42,77c6,0,10.59-4.29,11.75-10" transform="translate(-21.17 -24)"/><polyline class="cls-2" points="53 30 53 37 46 37"/><polyline class="cls-2" points="27 50 27 43 34 43"/><polygon class="cls-3" points="25 30 25 22.95 25 16 36 23 25 30"/><rect class="cls-4" x="1" y="1" width="10" height="11"/><rect class="cls-4" x="1" y="12" width="10" height="11"/><rect class="cls-4" x="1" y="23" width="10" height="11"/><rect class="cls-4" x="1" y="34" width="10" height="11"/><rect class="cls-4" x="47" y="1" width="10" height="11"/><rect class="cls-4" x="47" y="12" width="10" height="11"/><polyline class="cls-4" points="57 32 57 1 1 1 1 45 22 45"/></svg>
