<svg id="Layer_1" data-name="Layer 1" xmlns="http://www.w3.org/2000/svg" viewBox="0 0 57.97 59"><defs><style>.cls-1{fill:none;}.cls-1,.cls-2{stroke:#388E3C;stroke-linecap:round;stroke-miterlimit:10;stroke-width:1px;}.cls-2{fill:#C8E6C9;}</style></defs><title>media-transmission-icon</title><path class="cls-1" d="M30.21,60.6a28,28,0,0,1,0-39.6" transform="translate(-21.03 -20)"/><path class="cls-1" d="M69.81,21a28,28,0,0,1,0,39.6" transform="translate(-21.03 -20)"/><path class="cls-1" d="M34.46,56.36a22,22,0,0,1,0-31.11" transform="translate(-21.03 -20)"/><path class="cls-1" d="M65.57,25.24a22,22,0,0,1,0,31.11" transform="translate(-21.03 -20)"/><path class="cls-1" d="M38.7,52.11a16,16,0,0,1,0-22.63" transform="translate(-21.03 -20)"/><path class="cls-1" d="M61.33,29.49a16,16,0,0,1,0,22.63" transform="translate(-21.03 -20)"/><circle class="cls-2" cx="28.99" cy="21" r="6"/><line class="cls-1" x1="28.99" y1="27" x2="28.99" y2="58"/></svg>
