<?xml version="1.0" encoding="UTF-8" standalone="no"?>
<!-- Generator: Adobe Illustrator 17.0.0, SVG Export Plug-In . SVG Version: 6.00 Build 0)  -->

<svg
   xmlns:dc="http://purl.org/dc/elements/1.1/"
   xmlns:cc="http://creativecommons.org/ns#"
   xmlns:rdf="http://www.w3.org/1999/02/22-rdf-syntax-ns#"
   xmlns:svg="http://www.w3.org/2000/svg"
   xmlns="http://www.w3.org/2000/svg"
   xmlns:sodipodi="http://sodipodi.sourceforge.net/DTD/sodipodi-0.dtd"
   xmlns:inkscape="http://www.inkscape.org/namespaces/inkscape"
   version="1.1"
   id="图层_1"
   x="0px"
   y="0px"
   width="150px"
   height="150px"
   viewBox="0 0 150 150"
   style="enable-background:new 0 0 150 150;"
   xml:space="preserve"
   inkscape:version="0.91 r13725"
   sodipodi:docname="media-app.svg"><metadata
     id="metadata31"><rdf:RDF><cc:Work
         rdf:about=""><dc:format>image/svg+xml</dc:format><dc:type
           rdf:resource="http://purl.org/dc/dcmitype/StillImage" /></cc:Work></rdf:RDF></metadata><defs
     id="defs29"><style
       id="style4180">.cls-1,.cls-2,.cls-4{fill:none;}.cls-1,.cls-2,.cls-3,.cls-4{stroke:#512DA8;stroke-width:1px;}.cls-1,.cls-3,.cls-4{stroke-linecap:round;}.cls-1,.cls-2{stroke-miterlimit:10;}.cls-3{fill:#D1C4E9;}.cls-3,.cls-4{stroke-linejoin:round;}</style></defs><sodipodi:namedview
     pagecolor="#ffffff"
     bordercolor="#666666"
     borderopacity="1"
     objecttolerance="10"
     gridtolerance="10"
     guidetolerance="10"
     inkscape:pageopacity="0"
     inkscape:pageshadow="2"
     inkscape:window-width="1920"
     inkscape:window-height="1017"
     id="namedview27"
     showgrid="false"
     inkscape:zoom="1.5733333"
     inkscape:cx="-42.765941"
     inkscape:cy="82.846384"
     inkscape:window-x="-8"
     inkscape:window-y="-8"
     inkscape:window-maximized="1"
     inkscape:current-layer="图层_1" /><path
     style="fill:#60b530"
     d="m 142.46,72.501 0,-54.985 c 0,-6.891 -5.606,-12.497 -12.497,-12.497 l -109.969,0 c -6.891,0 -12.497,5.606 -12.497,12.497 l 0,37.49 C 3.364,55.006 0,58.37 0,62.503 l 0,74.979 c 0,4.134 3.364,7.498 7.498,7.498 l 54.985,0 c 4.134,0 7.498,-3.364 7.498,-7.498 l 20.947,0 c 2.357,0 4.529,-1.075 5.958,-2.947 1.43,-1.872 1.894,-4.251 1.275,-6.523 l -4.914,-18.022 14.224,0 0,27.492 c 0,4.134 3.364,7.498 7.498,7.498 l 27.492,0 c 4.134,0 7.498,-3.364 7.498,-7.498 l 0,-57.483 c -0.001,-4.134 -3.365,-7.498 -7.499,-7.498 z m 2.5,7.498 0,4.999 -32.491,0 0,-4.999 c 0,-1.377 1.122,-2.499 2.499,-2.499 l 27.492,0 c 1.378,-0.001 2.5,1.121 2.5,2.499 z m -32.491,9.997 32.491,0 0,37.49 -32.491,0 c 0,0 0,-37.49 0,-37.49 z M 12.497,17.516 c 0,-4.134 3.364,-7.498 7.498,-7.498 l 109.969,0 c 4.134,0 7.498,3.364 7.498,7.498 l 0,54.985 -22.494,0 c -4.134,0 -7.498,3.364 -7.498,7.498 l 0,4.999 -37.49,0 0,-22.495 c 0,-4.134 -3.364,-7.498 -7.498,-7.498 l -49.985,0 0,-37.489 z m 52.485,109.969 -59.983,0 0,-54.984 59.983,0 0,54.984 z M 7.498,60.004 l 54.985,0 c 1.377,0 2.499,1.122 2.499,2.499 l 0,4.999 -59.983,0 0,-4.999 c 0,-1.377 1.122,-2.499 2.499,-2.499 z m 54.985,79.978 -54.985,0 c -1.377,0 -2.499,-1.122 -2.499,-2.499 l 0,-4.999 59.983,0 0,4.999 c 0,1.377 -1.122,2.499 -2.499,2.499 z m 30.431,-8.48 c -0.477,0.625 -1.2,0.982 -1.987,0.982 l -20.946,0 0,-4.999 22.856,0 0.502,1.842 c 0.208,0.758 0.053,1.55 -0.425,2.175 z m -1.439,-9.015 -21.494,0 0,-12.497 18.085,0 3.409,12.497 z m -21.494,-17.495 0,-14.996 37.49,0 0,14.996 c 0,0 -37.49,0 -37.49,0 z m 72.479,34.99 -27.492,0 c -1.377,0 -2.499,-1.122 -2.499,-2.499 l 0,-4.999 32.491,0 0,4.999 c 0,1.377 -1.122,2.499 -2.5,2.499 z"
     id="path6"
     inkscape:connector-curvature="0" /><path
     style="opacity:0.3;fill:#60b530;enable-background:new"
     d="m 139.222,76.041 -28.159,0 0,8.956 -43.79,0 0.104,-26.915 -55.609,0.008 0,-45.67 c 0,-2.131 1.678,-3.859 3.749,-3.859 l 119.957,0 c 2.07,0 3.749,1.728 3.749,3.859 l -0.001,63.621 0,0 z"
     id="path8"
     inkscape:connector-curvature="0" /><rect
     x="17.495001"
     y="15.017"
     style="fill:#60b530"
     width="4.9990001"
     height="4.9990001"
     id="rect10" /><rect
     x="27.492001"
     y="15.017"
     style="fill:#60b530"
     width="4.9990001"
     height="4.9990001"
     id="rect12" /><rect
     x="37.490002"
     y="15.017"
     style="fill:#60b530"
     width="4.9990001"
     height="4.9990001"
     id="rect14" /><rect
     x="4.9990001"
     y="72.500999"
     style="opacity:0.3;fill:#60b530;enable-background:new"
     width="59.983002"
     height="54.985001"
     id="rect16" /><rect
     x="112.4466"
     y="89.996002"
     style="opacity:0.3;fill:#60b530;enable-background:new"
     width="32.491001"
     height="37.490002"
     id="rect18" /><polygon
     style="fill:#60b530;fill-opacity:1;stroke:none;stroke-width:1px;stroke-linecap:round;stroke-linejoin:round"
     class="cls-3"
     points="25,30 25,30 25,22.95 25,16 36,23 "
     id="polygon4192-6"
     transform="matrix(1.5447942,0,0,1.5447942,81.575879,73.210736)" /><polygon
     style="fill:#60b530;fill-opacity:1;stroke:none;stroke-width:1px;stroke-linecap:round;stroke-linejoin:round"
     class="cls-3"
     points="25,22.95 25,16 36,23 25,30 25,30 "
     id="polygon4192-6-8"
     transform="matrix(1.5447942,0,0,1.5447942,-12.125722,64.463233)" /><polygon
     style="fill:#60b530;fill-opacity:1;stroke:none;stroke-width:1px;stroke-linecap:round;stroke-linejoin:round"
     class="cls-3"
     points="36,23 25,30 25,30 25,22.95 25,16 "
     id="polygon4192-6-1"
     transform="matrix(1.5447942,0,0,1.5447942,32.379277,11.248733)" /></svg>