<svg id="Layer_1" data-name="Layer 1" xmlns="http://www.w3.org/2000/svg" viewBox="0 0 60 53"><defs><style>.cls-1{fill:#fff;}.cls-1,.cls-3,.cls-4,.cls-5,.cls-6{stroke:#C2185B;stroke-miterlimit:10;stroke-width:1px;}.cls-2{fill:#F8BBD0;}.cls-3,.cls-5{fill:none;}.cls-4,.cls-6{fill:#F8BBD0;}.cls-5,.cls-6{stroke-linecap:round;}</style></defs><title>media-processing-icon</title><rect class="cls-1" x="1" y="4" width="58" height="48"/><circle class="cls-2" cx="28" cy="22" r="1"/><circle class="cls-2" cx="28" cy="25" r="1"/><circle class="cls-2" cx="28" cy="28" r="1"/><circle class="cls-2" cx="28" cy="13" r="1"/><circle class="cls-2" cx="25" cy="15" r="1"/><circle class="cls-2" cx="25" cy="19" r="1"/><circle class="cls-2" cx="56" cy="15" r="1"/><circle class="cls-2" cx="56" cy="22" r="1"/><circle class="cls-2" cx="19" cy="36" r="1"/><circle class="cls-2" cx="16" cy="36" r="1"/><circle class="cls-2" cx="13" cy="36" r="1"/><circle class="cls-2" cx="4" cy="24" r="1"/><circle class="cls-2" cx="4" cy="27" r="1"/><circle class="cls-2" cx="4" cy="30" r="1"/><circle class="cls-2" cx="28" cy="16" r="1"/><circle class="cls-2" cx="28" cy="19" r="1"/><rect class="cls-1" x="33" y="8" width="20" height="20" rx="1.71" ry="1.71"/><rect class="cls-1" x="33" y="1" width="4" height="3"/><rect class="cls-1" x="37" y="1" width="4" height="3"/><rect class="cls-1" x="41" y="1" width="4" height="3"/><rect class="cls-1" x="45" y="1" width="4" height="3"/><rect class="cls-1" x="49" y="1" width="4" height="3"/><rect class="cls-3" x="27" y="44" width="26" height="4"/><rect class="cls-3" x="27" y="40" width="26" height="4"/><rect class="cls-3" x="27" y="36" width="26" height="4"/><rect class="cls-3" x="27" y="32" width="26" height="4"/><rect class="cls-4" x="27.5" y="36.5" width="23" height="4" transform="translate(57.5 -23.5) rotate(90)"/><rect class="cls-4" x="22.5" y="33.5" width="17" height="4" transform="translate(46.5 -18.5) rotate(90)"/><line class="cls-5" x1="27" y1="34" x2="25" y2="34"/><line class="cls-5" x1="27" y1="38" x2="25" y2="38"/><line class="cls-5" x1="55" y1="34" x2="53" y2="34"/><line class="cls-5" x1="55" y1="38" x2="53" y2="38"/><line class="cls-5" x1="27" y1="42" x2="25" y2="42"/><line class="cls-5" x1="27" y1="46" x2="25" y2="46"/><line class="cls-5" x1="55" y1="42" x2="53" y2="42"/><line class="cls-5" x1="55" y1="46" x2="53" y2="46"/><line class="cls-5" x1="30" y1="32" x2="30" y2="48"/><line class="cls-5" x1="50" y1="32" x2="50" y2="48"/><rect class="cls-6" x="13" y="40" width="6" height="7"/><line class="cls-5" x1="19" y1="42" x2="21" y2="42"/><line class="cls-5" x1="19" y1="45" x2="21" y2="45"/><line class="cls-5" x1="11" y1="42" x2="13" y2="42"/><line class="cls-5" x1="11" y1="45" x2="13" y2="45"/><line class="cls-5" x1="1" y1="37" x2="4" y2="37"/><line class="cls-5" x1="1" y1="40" x2="4" y2="40"/><line class="cls-5" x1="1" y1="43" x2="4" y2="43"/><line class="cls-5" x1="1" y1="46" x2="4" y2="46"/><line class="cls-5" x1="1" y1="49" x2="4" y2="49"/><line class="cls-5" x1="30" y1="4" x2="30" y2="2"/><line class="cls-5" x1="27" y1="4" x2="27" y2="2"/><line class="cls-5" x1="56" y1="4" x2="56" y2="2"/><line class="cls-5" x1="11" y1="21" x2="11" y2="23"/><line class="cls-5" x1="19" y1="27" x2="19" y2="29"/><line class="cls-5" x1="1" y1="9" x2="4" y2="9"/><line class="cls-5" x1="1" y1="12" x2="4" y2="12"/><line class="cls-5" x1="1" y1="15" x2="4" y2="15"/><rect class="cls-6" x="8" y="27" width="5" height="5"/><rect class="cls-4" x="38" y="13" width="10" height="10"/><line class="cls-3" x1="40" y1="13" x2="40" y2="10"/><line class="cls-3" x1="43" y1="13" x2="43" y2="10"/><line class="cls-3" x1="46" y1="13" x2="46" y2="10"/><line class="cls-3" x1="40" y1="26" x2="40" y2="23"/><line class="cls-3" x1="43" y1="26" x2="43" y2="23"/><line class="cls-3" x1="46" y1="26" x2="46" y2="23"/><line class="cls-3" x1="48" y1="15" x2="51" y2="15"/><line class="cls-3" x1="48" y1="18" x2="51" y2="18"/><line class="cls-3" x1="48" y1="21" x2="51" y2="21"/><line class="cls-3" x1="35" y1="15" x2="38" y2="15"/><line class="cls-3" x1="35" y1="18" x2="38" y2="18"/><line class="cls-3" x1="35" y1="21" x2="38" y2="21"/></svg>
