<?xml version="1.0" encoding="iso-8859-1"?>
<!-- Generator: Adobe Illustrator 17.0.0, SVG Export Plug-In . SVG Version: 6.00 Build 0)  -->
<!DOCTYPE svg PUBLIC "-//W3C//DTD SVG 1.1//EN" "http://www.w3.org/Graphics/SVG/1.1/DTD/svg11.dtd">
<svg version="1.1" id="&#x56FE;&#x5C42;_1" xmlns="http://www.w3.org/2000/svg" xmlns:xlink="http://www.w3.org/1999/xlink" x="0px"
	 y="0px" width="150px" height="150px" viewBox="0 0 150 150" style="enable-background:new 0 0 150 150;" xml:space="preserve">
<g id="database">
	<g>
		<g>
			<path style="fill:#0AB0DA;" d="M75.14,0.191c-31.442,0-65.28,9.472-65.28,30.306v88.597c0,20.839,33.838,30.335,65.28,30.335
				c31.448,0,65.28-9.496,65.28-30.335V30.496C140.42,9.663,106.588,0.191,75.14,0.191L75.14,0.191z M131.111,119.093
				c0,11.594-25.071,20.997-55.971,20.997s-55.942-9.402-55.942-20.997v-17.417c9.63,9.927,32.853,15.097,55.942,15.097
				s46.336-5.17,55.971-15.097V119.093z M131.111,91.137h-0.023c0,0.041,0.023,0.088,0.023,0.134
				c0,11.524-25.071,20.833-55.971,20.833s-55.942-9.309-55.942-20.833c0-0.047,0-0.093,0-0.134V73.69
				c9.63,9.927,32.853,15.097,55.942,15.097s46.336-5.17,55.971-15.097V91.137z M131.111,63.151h-0.023
				c0,0.047,0.023,0.088,0.023,0.134c0,11.524-25.071,20.833-55.971,20.833s-55.942-9.309-55.942-20.833c0-0.047,0-0.088,0-0.134
				v-16.03c12.2,9.309,34.607,13.681,55.942,13.681s43.742-4.372,55.971-13.681V63.151z M75.14,51.493
				c-30.9,0-55.942-9.408-55.942-20.996S44.24,9.53,75.14,9.53s55.971,9.379,55.971,20.967S106.04,51.493,75.14,51.493L75.14,51.493
				z"/>
			<path style="fill:#0AB0DA;" d="M121.773,121.442c0,2.571-2.07,4.669-4.669,4.669c-2.571,0-4.64-2.098-4.64-4.669
				c0-2.577,2.069-4.669,4.64-4.669C119.704,116.773,121.773,118.866,121.773,121.442L121.773,121.442z"/>
			<path style="fill:#0AB0DA;" d="M121.773,93.457c0,2.571-2.07,4.669-4.669,4.669c-2.571,0-4.64-2.098-4.64-4.669
				s2.069-4.669,4.64-4.669C119.704,88.787,121.773,90.886,121.773,93.457L121.773,93.457z"/>
			<path style="fill:#0AB0DA;" d="M121.773,65.471c0,2.576-2.07,4.669-4.669,4.669c-2.571,0-4.64-2.093-4.64-4.669
				c0-2.571,2.069-4.669,4.64-4.669C119.704,60.802,121.773,62.9,121.773,65.471L121.773,65.471z"/>
		</g>
		<path style="opacity:0.25;fill:#0AB0DA;enable-background:new    ;" d="M136,111c0,6.627-6.373,25.375-13,25.375l-47.86,9
			l-45.89-9.75C22.623,135.625,14,117.627,14,111V32c0-6.627,25.539-24.5,32.167-24.5l62,1.5C114.794,9,136,25.373,136,32V111z"/>
	</g>
</g>
</svg>
