<?xml version="1.0" encoding="iso-8859-1"?>
<!-- Generator: Adobe Illustrator 17.0.0, SVG Export Plug-In . SVG Version: 6.00 Build 0)  -->
<!DOCTYPE svg PUBLIC "-//W3C//DTD SVG 1.1//EN" "http://www.w3.org/Graphics/SVG/1.1/DTD/svg11.dtd">
<svg version="1.1" id="&#x56FE;&#x5C42;_1" xmlns="http://www.w3.org/2000/svg" xmlns:xlink="http://www.w3.org/1999/xlink" x="0px"
	 y="0px" width="150px" height="150px" viewBox="0 0 150 150" style="enable-background:new 0 0 150 150;" xml:space="preserve">
<g id="sensors">
	<g>
		<g>
			<path style="fill:#B61B57;stroke:#FFFFFF;stroke-width:2;stroke-miterlimit:10;" d="M97.885,80.449V22.996
				c0-12.29-10.062-22.287-22.358-22.287c-12.272,0-22.334,9.997-22.334,22.287v57.43c-10.062,7.156-16.345,18.715-16.345,30.828
				c0,20.979,16.946,38.037,37.736,38.037c21.232,0,38.567-17.059,38.567-38.037C113.128,98.633,107.447,87.334,97.885,80.449
				L97.885,80.449z M74.609,138.675c-14.943,0-27.097-12.29-27.097-27.421c0-5.665,1.91-11.146,5.293-15.726h20.1
				c1.474,0,2.67-1.291,2.67-2.764c0-1.474-1.196-2.759-2.67-2.759H58.193c0.967-0.761,1.91-1.474,2.994-2.122l2.552-1.538v-7.392
				h9.166c1.474,0,2.67-1.061,2.67-2.535c0-1.45-1.196-2.511-2.67-2.511h-9.166v-5.016h9.166c1.474,0,2.67-1.037,2.67-2.511
				s-1.196-2.511-2.67-2.511h-9.166v-6.03h9.166c1.474,0,2.67-1.037,2.67-2.511s-1.196-2.511-2.67-2.511h-9.166v-5.022h9.166
				c1.474,0,2.67-1.055,2.67-2.505c0-1.474-1.196-2.535-2.67-2.535h-9.166v-6.012h9.166c1.474,0,2.67-1.031,2.67-2.505
				s-1.196-2.511-2.67-2.511h-9.166v-8.73c0-6.419,5.393-11.671,11.813-11.671c6.425,0,11.789,5.252,11.789,11.671v63.348
				l2.535,1.538c8.058,4.792,12.644,13.286,12.644,23.372C102.519,126.385,89.969,138.675,74.609,138.675L74.609,138.675z"/>
			<path style="fill:#B61B57;" d="M57.686,107.569c-0.572,2.004-0.967,3.708-0.967,5.688c0,10.085,8.176,18.302,18.261,18.302
				s18.255-8.241,18.255-18.326c0-1.981-0.389-3.637-0.967-5.665L57.686,107.569L57.686,107.569z"/>
		</g>
		<path style="opacity:0.25;fill:#B61B57;enable-background:new    ;" d="M90.732,84.436c0.025-0.328,0.05-0.656,0.05-0.991V21.672
			c0-7.183-5.823-13.007-13.007-13.007h-6.316c-7.183,0-13.007,5.823-13.007,13.007v61.774c0,0.489,0.032,0.97,0.085,1.445
			c-8.658,5.47-14.412,15.118-14.412,26.116c0,17.054,13.825,30.878,30.878,30.878s30.878-13.825,30.878-30.878
			C105.882,99.699,99.799,89.816,90.732,84.436z"/>
	</g>
</g>
</svg>
