<?xml version="1.0" encoding="iso-8859-1"?>
<!-- Generator: Adobe Illustrator 17.0.0, SVG Export Plug-In . SVG Version: 6.00 Build 0)  -->
<!DOCTYPE svg PUBLIC "-//W3C//DTD SVG 1.1//EN" "http://www.w3.org/Graphics/SVG/1.1/DTD/svg11.dtd">
<svg version="1.1" id="&#x56FE;&#x5C42;_1" xmlns="http://www.w3.org/2000/svg" xmlns:xlink="http://www.w3.org/1999/xlink" x="0px"
	 y="0px" width="150px" height="150px" viewBox="0 0 150 150" style="enable-background:new 0 0 150 150;" xml:space="preserve">
<g id="&#x56FE;&#x5C42;_12">
	<g>
		<circle style="opacity:0.3;fill:#6BA3D2;enable-background:new    ;" cx="73.995" cy="82.432" r="64.773"/>
		<path style="fill:#6BA3D2;" d="M139.285,65.139c0,0,0-0.012,0-0.022c0-0.012-0.012-0.012-0.012-0.025
			c-1.511-5.649-3.763-10.998-6.619-15.948c-0.025-0.059-0.025-0.108-0.047-0.155c-0.037-0.05-0.087-0.087-0.112-0.133
			c-2.503-4.296-5.467-8.288-8.843-11.918l5.324-5.312l3.506,3.497l10.515-10.503l-10.515-10.512L121.97,24.62l3.497,3.497
			l-5.312,5.324c-3.63-3.364-7.622-6.328-11.918-8.833c-0.046-0.034-0.071-0.084-0.121-0.108c-0.059-0.034-0.109-0.034-0.167-0.059
			c-4.949-2.856-10.298-5.095-15.947-6.619c0,0-0.012-0.012-0.025-0.012s-0.012,0-0.022,0c-3.209-0.858-6.498-1.474-9.862-1.849
			v-2.905h3.714c3.426,0,6.195-2.781,6.195-6.194s-2.769-6.195-6.195-6.195H63.512c-3.413,0-6.194,2.781-6.194,6.195
			c0,3.413,2.781,6.194,6.194,6.194h3.714v2.905c-3.364,0.375-6.653,0.991-9.849,1.849c-0.009,0-0.022,0-0.022,0
			c-0.012,0.012-0.025,0.012-0.037,0.012c-5.637,1.524-10.986,3.763-15.948,6.619c-0.047,0.025-0.108,0.025-0.155,0.059
			c-0.05,0.025-0.074,0.074-0.121,0.108c-4.296,2.506-8.3,5.47-11.918,8.833l-5.324-5.324l3.509-3.497L16.849,14.109L6.334,24.621
			l10.515,10.503l3.506-3.497l5.312,5.312c-3.364,3.63-6.328,7.622-8.83,11.918c-0.037,0.047-0.087,0.084-0.112,0.133
			c-0.022,0.046-0.022,0.096-0.047,0.155c-2.868,4.949-5.107,10.298-6.619,15.948c0,0.012-0.012,0.012-0.012,0.025
			c0,0.009,0,0.022,0,0.022c-1.486,5.53-2.285,11.313-2.285,17.287c0,5.99,0.799,11.773,2.273,17.289
			c0.012,0.012,0,0.025,0.012,0.037c0,0.012,0.012,0.012,0.012,0.025c1.511,5.649,3.751,10.998,6.606,15.944
			c0.025,0.05,0.025,0.112,0.059,0.158c0.037,0.074,0.099,0.133,0.146,0.195c2.893,4.934,6.377,9.484,10.394,13.513
			c0.037,0.05,0.046,0.108,0.096,0.145c0.037,0.05,0.096,0.059,0.146,0.109c4.054,4.029,8.613,7.526,13.587,10.416
			c0.047,0.037,0.071,0.087,0.121,0.108c0.071,0.05,0.155,0.062,0.229,0.099c4.937,2.843,10.258,5.067,15.873,6.582
			c0.012,0,0.025,0,0.037,0.012c0.012,0,0.022,0,0.034,0c5.519,1.474,11.302,2.273,17.276,2.273c5.978,0,11.76-0.799,17.279-2.273
			c0.012,0,0.022,0,0.034,0c0.012-0.012,0.012-0.012,0.025-0.012c5.615-1.515,10.936-3.738,15.873-6.582
			c0.084-0.037,0.158-0.05,0.242-0.099c0.05-0.022,0.074-0.071,0.121-0.108c4.962-2.89,9.533-6.387,13.588-10.416
			c0.037-0.05,0.096-0.059,0.146-0.109c0.037-0.037,0.059-0.096,0.096-0.145c4.005-4.029,7.501-8.579,10.382-13.513
			c0.046-0.062,0.108-0.121,0.158-0.195c0.022-0.046,0.022-0.108,0.047-0.158c2.856-4.946,5.095-10.295,6.619-15.944
			c0-0.012,0.012-0.012,0.012-0.025c0-0.012,0-0.025,0-0.037c1.474-5.516,2.273-11.299,2.273-17.289
			C141.558,76.453,140.759,70.67,139.285,65.139L139.285,65.139z M132.484,21.115l3.497,3.506l-3.497,3.497l-3.506-3.497
			L132.484,21.115z M13.34,24.621l3.509-3.506l3.506,3.506l-3.506,3.497L13.34,24.621z M129.074,99.573l4.742,1.27
			c-1.124,3.617-2.589,7.09-4.33,10.379l-4.234-2.444c-1.186-0.675-2.701-0.279-3.376,0.907c-0.691,1.186-0.279,2.698,0.907,3.388
			l4.209,2.431c-2.007,3.181-4.296,6.157-6.835,8.917l-3.447-3.447c-0.969-0.969-2.53-0.969-3.497,0
			c-0.969,0.966-0.969,2.54,0,3.509l3.435,3.435c-2.747,2.54-5.733,4.829-8.905,6.848l-2.444-4.222
			c-0.678-1.186-2.202-1.598-3.376-0.907c-1.195,0.688-1.595,2.202-0.907,3.385l2.444,4.237c-3.302,1.728-6.761,3.193-10.379,4.317
			l-1.27-4.742c-0.366-1.32-1.719-2.106-3.038-1.744c-1.319,0.353-2.103,1.707-1.753,3.026l1.27,4.73
			c-3.605,0.811-7.331,1.319-11.144,1.465v-4.888c0-1.369-1.112-2.481-2.481-2.481c-1.366,0-2.478,1.112-2.478,2.481v4.888
			c-3.813-0.146-7.539-0.654-11.144-1.465l1.257-4.73c0.366-1.319-0.421-2.673-1.741-3.026c-1.332-0.362-2.685,0.424-3.038,1.744
			l-1.27,4.742c-3.618-1.124-7.077-2.589-10.379-4.317l2.444-4.237c0.675-1.183,0.279-2.698-0.907-3.385
			c-1.186-0.678-2.698-0.279-3.388,0.907l-2.431,4.222c-3.184-2.019-6.157-4.308-8.917-6.848l3.447-3.435
			c0.969-0.969,0.969-2.543,0-3.509c-0.966-0.969-2.54-0.969-3.509,0l-3.435,3.447c-2.54-2.76-4.829-5.736-6.848-8.917l4.221-2.431
			c1.186-0.691,1.598-2.202,0.907-3.388c-0.688-1.186-2.202-1.595-3.385-0.907l-4.225,2.444c-1.741-3.289-3.206-6.761-4.33-10.379
			l4.742-1.27c1.319-0.353,2.106-1.707,1.753-3.026c-0.35-1.332-1.716-2.119-3.035-1.753l-4.729,1.257
			c-0.811-3.605-1.319-7.331-1.465-11.144h4.887c1.378,0,2.481-1.1,2.481-2.481c0-1.366-1.103-2.465-2.481-2.465h-4.887
			c0.146-3.825,0.654-7.539,1.465-11.156l4.729,1.27c0.217,0.062,0.437,0.087,0.641,0.087c1.09,0,2.094-0.728,2.394-1.84
			c0.353-1.319-0.434-2.676-1.753-3.026l-4.742-1.282c1.124-3.605,2.589-7.077,4.33-10.369l4.225,2.447
			c0.387,0.217,0.808,0.325,1.233,0.325c0.858,0,1.694-0.449,2.152-1.233c0.678-1.186,0.279-2.71-0.907-3.388l-4.221-2.431
			c2.007-3.184,4.308-6.173,6.848-8.917l3.435,3.447c0.486,0.471,1.115,0.725,1.756,0.725c0.629,0,1.27-0.254,1.753-0.725
			c0.969-0.979,0.969-2.54,0-3.509l-3.447-3.447c2.76-2.527,5.733-4.829,8.917-6.836l2.431,4.222
			c0.458,0.787,1.295,1.236,2.153,1.236c0.412,0,0.849-0.112,1.236-0.328c1.186-0.688,1.583-2.202,0.907-3.388l-2.444-4.234
			c3.289-1.741,6.761-3.193,10.366-4.33l1.282,4.754c0.291,1.1,1.295,1.827,2.385,1.827c0.217,0,0.437-0.025,0.641-0.087
			c1.332-0.35,2.118-1.703,1.753-3.023l-1.257-4.729c2.905-0.666,5.879-1.115,8.917-1.332c0.762-0.062,1.465-0.109,2.128-0.133
			c0.037,0,0.062,0,0.099,0v4.888c0,1.366,1.112,2.481,2.478,2.481c1.369,0,2.481-1.115,2.481-2.481v-4.888c0.025,0,0.062,0,0.087,0
			c0.675,0.025,1.366,0.071,2.14,0.133c3.035,0.229,6.012,0.666,8.917,1.332l-1.27,4.729c-0.35,1.319,0.434,2.673,1.753,3.023
			c0.22,0.062,0.437,0.087,0.641,0.087c1.103,0,2.106-0.728,2.397-1.827l1.27-4.754c3.618,1.137,7.077,2.589,10.379,4.33
			l-2.444,4.234c-0.688,1.186-0.279,2.701,0.907,3.388c0.387,0.217,0.812,0.328,1.236,0.328c0.858,0,1.694-0.449,2.153-1.236
			l2.431-4.222c3.172,2.007,6.157,4.308,8.905,6.836l-3.435,3.447c-0.969,0.969-0.969,2.53,0,3.509
			c0.483,0.471,1.112,0.725,1.753,0.725c0.629,0,1.258-0.254,1.744-0.725l3.447-3.447c2.54,2.744,4.829,5.733,6.848,8.917
			l-4.222,2.431c-1.186,0.678-1.598,2.202-0.907,3.388c0.458,0.784,1.295,1.233,2.14,1.233c0.424,0,0.849-0.108,1.245-0.325
			l4.225-2.447c1.741,3.292,3.206,6.764,4.33,10.369l-4.742,1.282c-1.319,0.35-2.118,1.707-1.756,3.026
			c0.304,1.112,1.295,1.84,2.397,1.84c0.204,0,0.424-0.025,0.641-0.087l4.729-1.27c0.811,3.618,1.307,7.331,1.465,11.156h-4.9
			c-1.366,0-2.481,1.1-2.481,2.465c0,1.381,1.115,2.481,2.481,2.481h4.9c-0.158,3.813-0.654,7.539-1.465,11.156l-4.729-1.27
			c-1.319-0.366-2.685,0.434-3.038,1.753C126.955,97.867,127.742,99.22,129.074,99.573L129.074,99.573z M72.187,15.583V8.094h-8.675
			c-0.678,0-1.236-0.554-1.236-1.233s0.557-1.233,1.236-1.233h22.297c0.691,0,1.245,0.554,1.245,1.233S86.5,8.094,85.809,8.094
			h-8.663v7.489c-0.87-0.034-1.682-0.047-2.481-0.047C73.869,15.536,73.057,15.549,72.187,15.583L72.187,15.583z"/>
		<path style="fill:#6BA3D2;" d="M80.933,76.366L48.859,53.174c-0.979-0.712-2.345-0.604-3.206,0.254
			c-0.858,0.858-0.966,2.227-0.254,3.206l23.204,32.075c1.527,2.094,3.871,3.41,6.451,3.618c0.229,0.012,0.458,0.025,0.688,0.025
			c2.335,0,4.587-0.932,6.244-2.589c1.827-1.827,2.756-4.358,2.565-6.935C84.347,80.25,83.027,77.893,80.933,76.366L80.933,76.366z
			 M78.49,86.252c-0.811,0.799-1.923,1.208-3.051,1.124c-1.124-0.084-2.165-0.666-2.831-1.573L58.454,66.229l19.565,14.154
			c0.917,0.666,1.499,1.706,1.583,2.831C79.701,84.341,79.289,85.453,78.49,86.252L78.49,86.252z"/>
		<path style="fill:#FFFFFF;" d="M78.49,86.252c-0.811,0.799-1.923,1.208-3.051,1.124c-1.124-0.084-2.165-0.666-2.831-1.573
			L58.454,66.229l19.565,14.154c0.917,0.666,1.499,1.706,1.583,2.831C79.701,84.341,79.289,85.453,78.49,86.252L78.49,86.252z"/>
	</g>
</g>
</svg>
