<?xml version="1.0" encoding="utf-8"?>
<!-- Generator: Adobe Illustrator 17.0.0, SVG Export Plug-In . SVG Version: 6.00 Build 0)  -->
<!DOCTYPE svg PUBLIC "-//W3C//DTD SVG 1.1//EN" "http://www.w3.org/Graphics/SVG/1.1/DTD/svg11.dtd">
<svg version="1.1" id="图层_1" xmlns="http://www.w3.org/2000/svg" xmlns:xlink="http://www.w3.org/1999/xlink" x="0px" y="0px"
	 width="150px" height="150px" viewBox="0 0 150 150" enable-background="new 0 0 150 150" xml:space="preserve">
<g id="application">
	<g>
		<g>
			<path fill="#60B530" d="M140.229,97.741c1.133-4.946,1.749-9.988,1.749-15.031c0-23.435-11.923-44.767-31.91-57.067
				c-1.22-0.753-2.804-0.377-3.548,0.844c-0.741,1.207-0.364,2.792,0.844,3.532c18.45,11.373,29.456,31.056,29.456,52.691
				c0,4.437-0.515,8.877-1.471,13.256c-1.182-0.251-2.415-0.377-3.671-0.377c-9.95,0-18.038,8.085-18.038,18.022
				c0,9.95,8.089,18.038,18.038,18.038c9.937,0,18.022-8.088,18.022-18.038C149.699,106.77,145.864,100.797,140.229,97.741
				L140.229,97.741z M131.677,126.492c-7.106,0-12.88-5.773-12.88-12.88c0-7.094,5.773-12.88,12.88-12.88
				c7.094,0,12.88,5.786,12.88,12.88C144.557,120.719,138.771,126.492,131.677,126.492L131.677,126.492z"/>
			<path fill="#60B530" d="M98.621,139.839c-7.509,3.107-15.446,4.691-23.621,4.691c-16.438,0-32.26-6.643-43.833-18.276
				c3.207-3.259,5.194-7.712,5.194-12.641c0-9.937-8.085-18.022-18.022-18.022c-9.95,0-18.038,8.085-18.038,18.022
				c0,9.95,8.088,18.038,18.038,18.038c3.156,0,6.124-0.831,8.703-2.251c12.564,12.902,29.91,20.273,47.957,20.273
				c8.855,0,17.458-1.697,25.595-5.068c1.323-0.541,1.938-2.051,1.398-3.371C101.452,139.926,99.941,139.298,98.621,139.839
				L98.621,139.839z M5.459,113.612c0-7.094,5.773-12.88,12.88-12.88c7.094,0,12.88,5.786,12.88,12.88
				c0,7.106-5.786,12.88-12.88,12.88C11.233,126.492,5.459,120.719,5.459,113.612L5.459,113.612z"/>
			<path fill="#60B530" d="M10.602,80.673c0.064,0.013,0.126,0.013,0.19,0.013c1.333,0,2.463-1.034,2.566-2.392
				c1.835-25.998,19.545-47.706,44.361-54.913c2.19,7.483,9.106,12.954,17.281,12.954c9.95,0,18.038-8.089,18.038-18.022
				c0-9.95-8.089-18.038-18.038-18.038c-9.911,0-17.986,8.05-18.022,17.961C29.721,25.831,10.225,49.529,8.212,77.929
				C8.112,79.352,9.182,80.582,10.602,80.673L10.602,80.673z M75,5.433c7.106,0,12.88,5.773,12.88,12.88
				c0,7.094-5.773,12.88-12.88,12.88c-7.094,0-12.88-5.786-12.88-12.88C62.12,11.206,67.906,5.433,75,5.433L75,5.433z"/>
		</g>
		<path fill="#60B530" d="M97.289,118.278V51.009c0-3.163-2.55-5.733-5.734-5.733h-33.11c-3.163,0-5.734,2.571-5.734,5.733v67.269
			c0,3.143,2.571,5.713,5.734,5.713h33.111C94.738,123.991,97.289,121.42,97.289,118.278L97.289,118.278z M87.78,48.873
			c0.81,0,1.483,0.653,1.483,1.462c0,0.81-0.673,1.462-1.483,1.462c-0.81,0-1.463-0.653-1.463-1.462
			C86.318,49.526,86.971,48.873,87.78,48.873L87.78,48.873z M67.321,49.43H82.68v1.68H67.321V49.43z M57.002,105.804V54.961h36.015
			v50.843H57.002z M75.007,118.338c-2.014,0-3.654-1.645-3.654-3.659s1.639-3.659,3.654-3.659c2.019,0,3.659,1.645,3.659,3.659
			C78.666,116.694,77.027,118.338,75.007,118.338L75.007,118.338z"/>
		<path opacity="0.3" fill="#60B530" enable-background="new    " d="M88.57,18.241c0,7.494-6.075,13.57-13.57,13.57l0,0
			c-7.494,0-13.57-6.075-13.57-13.57l0,0c0-7.494,6.075-13.57,13.57-13.57l0,0C82.494,4.671,88.57,10.746,88.57,18.241L88.57,18.241
			z"/>
		<path opacity="0.3" fill="#60B530" enable-background="new    " d="M144.986,113.497c0,7.494-6.075,13.57-13.57,13.57l0,0
			c-7.494,0-13.57-6.075-13.57-13.57l0,0c0-7.494,6.075-13.57,13.57-13.57l0,0C138.91,99.927,144.986,106.002,144.986,113.497
			L144.986,113.497z"/>
		<path opacity="0.3" fill="#60B530" enable-background="new    " d="M31.486,113.497c0,7.494-6.075,13.57-13.57,13.57l0,0
			c-7.494,0-13.57-6.075-13.57-13.57l0,0c0-7.494,6.075-13.57,13.57-13.57l0,0C25.41,99.927,31.486,106.002,31.486,113.497
			L31.486,113.497z"/>
		<rect x="57.002" y="54.961" opacity="0.3" fill="#60B530" enable-background="new    " width="36.015" height="50.843"/>
	</g>
</g>
</svg>
