<?xml version="1.0" encoding="iso-8859-1"?>
<!-- Generator: Adobe Illustrator 17.0.0, SVG Export Plug-In . SVG Version: 6.00 Build 0)  -->
<!DOCTYPE svg PUBLIC "-//W3C//DTD SVG 1.1//EN" "http://www.w3.org/Graphics/SVG/1.1/DTD/svg11.dtd">
<svg version="1.1" id="&#x56FE;&#x5C42;_1" xmlns="http://www.w3.org/2000/svg" xmlns:xlink="http://www.w3.org/1999/xlink" x="0px"
	 y="0px" width="150px" height="150px" viewBox="0 0 150 150" style="enable-background:new 0 0 150 150;" xml:space="preserve">
<g id="payment">
	<rect x="36.178" y="7.906" style="fill:none;" width="29.278" height="3.203"/>
	<path style="fill:none;" d="M50.831,125.316c-3.839,0-6.965,3.135-6.965,6.975s3.125,6.975,6.965,6.975
		c3.849,0,6.975-3.135,6.975-6.975C57.806,128.451,54.68,125.316,50.831,125.316z"/>
	<path style="fill:none;" d="M75.179,12.421c1.543,0,2.827-1.244,2.827-2.788c0-1.543-1.283-2.788-2.827-2.788
		c-1.543,0-2.788,1.244-2.788,2.788S73.636,12.421,75.179,12.421z"/>
	<path style="fill:#EE8313;" d="M85.164,115.37H16.508V18.45h68.655v14.289h8.142V10.916c0-6.029-4.862-10.93-10.93-10.93H19.257
		c-6.029,0-10.93,4.901-10.93,10.93v128.233c0,5.991,4.901,10.891,10.93,10.891h63.118c6.068,0,10.93-4.901,10.93-10.891V99.427
		h-8.142L85.164,115.37L85.164,115.37z M75.179,6.845c1.543,0,2.827,1.244,2.827,2.788s-1.283,2.788-2.827,2.788
		c-1.543,0-2.788-1.244-2.788-2.788C72.391,8.09,73.636,6.845,75.179,6.845z M36.178,7.906h29.278v3.203H36.178V7.906z
		 M50.831,139.265c-3.839,0-6.965-3.135-6.965-6.975c0-3.839,3.125-6.975,6.965-6.975c3.849,0,6.975,3.135,6.975,6.975
		C57.806,136.13,54.68,139.265,50.831,139.265z"/>
	<rect x="16.508" y="18.45" style="fill:#FFFFFF;" width="68.655" height="96.92"/>
	<g>
		<path style="fill:#EE8313;" d="M131.166,36.684h-87.39c-5.411,0-9.853,4.297-9.853,9.705V85.64c0,2.999,1.955,6.261,3.546,7.648
			c1.26,1.091,3.942,2.193,6.307,2.193h87.39c5.408,0,9.851-4.434,9.851-9.842v-39.25C141.017,40.981,136.574,36.684,131.166,36.684
			L131.166,36.684z M133.688,74.617c-5.751,2.057-10.91,6.808-13.295,13.534H54.468c-2.453-6.476-7.704-11.238-13.205-13.397V57.345
			c5.626-2.08,10.729-6.729,13.161-13.446h66.025c2.377,7.081,7.363,11.582,13.24,13.571v17.147H133.688z"/>
		<rect x="41.263" y="42.666" style="opacity:0.25;fill:#EE8313;enable-background:new    ;" width="93.083" height="45.485"/>
		<path style="fill:#EE8313;" d="M87.391,48.673c-9.592,0-17.377,7.773-17.377,17.377c0,9.592,7.785,17.362,17.377,17.362
			s17.365-7.77,17.365-17.362C104.756,56.446,96.983,48.673,87.391,48.673L87.391,48.673z"/>
		<path id="S" style="fill:#FFFFFF;" d="M88.788,76v3.239h-3.047v-3.023c-2.206-0.09-4.272-0.672-5.488-1.376l0.955-3.751
			c1.342,0.727,3.227,1.411,5.319,1.411c1.83,0,3.07-0.719,3.07-1.991c0-1.228-1.024-1.99-3.399-2.797
			c-3.434-1.158-5.776-2.762-5.776-5.875c0-2.82,2.014-5.037,5.433-5.718v-3.047h3.184V55.9c2.081,0.093,3.571,0.547,4.627,1.059
			l-0.943,3.626c-0.841-0.352-2.319-1.091-4.627-1.091c-2.092,0-2.762,0.896-2.762,1.795c0,1.068,1.112,1.74,3.841,2.762
			c3.818,1.353,5.343,3.117,5.343,6.003C94.529,72.918,92.46,75.351,88.788,76L88.788,76z"/>
	</g>
</g>
</svg>
