<?xml version="1.0" encoding="iso-8859-1"?>
<!-- Generator: Adobe Illustrator 17.0.0, SVG Export Plug-In . SVG Version: 6.00 Build 0)  -->
<!DOCTYPE svg PUBLIC "-//W3C//DTD SVG 1.1//EN" "http://www.w3.org/Graphics/SVG/1.1/DTD/svg11.dtd">
<svg version="1.1" id="&#x56FE;&#x5C42;_1" xmlns="http://www.w3.org/2000/svg" xmlns:xlink="http://www.w3.org/1999/xlink" x="0px"
	 y="0px" width="150px" height="150px" viewBox="0 0 150 150" style="enable-background:new 0 0 150 150;" xml:space="preserve">
<g id="security">
	<g>
		<path style="fill:#169E49;stroke:#FFFFFF;stroke-width:1.5;stroke-miterlimit:10;" d="M134.25,23.739L76.644,1.424
			c-1.004-0.389-2.117-0.389-3.121,0L15.916,23.739c-1.663,0.644-2.76,2.245-2.76,4.029v10.95
			c0,42.118,20.116,82.973,59.536,109.165c1.448,0.961,3.331,0.963,4.782,0c39.074-25.962,59.536-66.644,59.536-109.165v-10.95
			C137.01,25.984,135.914,24.384,134.25,23.739z M128.369,38.718c0,38.608-18.085,75.89-53.286,100.343
			C39.849,114.586,21.797,77.297,21.797,38.718v-7.99l53.286-20.642l53.286,20.642V38.718z"/>
		<path style="fill:#169E49;stroke:#FFFFFF;stroke-width:1.5;stroke-miterlimit:10;" d="M73.523,16.868L30.318,33.604
			c-1.663,0.645-2.76,2.245-2.76,4.029c0,38.24,17.429,71.215,44.883,92.438c1.557,1.204,3.73,1.203,5.285,0
			c27.429-21.203,44.883-54.151,44.883-92.438c0-1.784-1.097-3.384-2.76-4.029L76.644,16.868
			C75.64,16.479,74.527,16.479,73.523,16.868z M113.951,40.587c-0.533,30.072-13.84,59.868-38.868,80.537
			c-25.029-20.67-38.335-50.467-38.868-80.537L75.083,25.53L113.951,40.587z"/>
		<path style="opacity:0.3;fill:#169E49;enable-background:new    ;" d="M115.005,39.571c-0.547,30.887-14.216,61.491-39.922,82.721
			c-25.707-21.23-39.375-51.835-39.922-82.721l39.922-15.465L115.005,39.571z"/>
		<path style="fill:#169E49;" d="M60.856,71.011c-1.687-1.687-4.423-1.687-6.11,0s-1.687,4.423,0,6.11l11.327,11.327
			c1.687,1.687,4.423,1.687,6.11,0L95.42,65.212c1.687-1.687,1.687-4.423,0-6.11c-1.687-1.688-4.423-1.687-6.11,0L69.128,79.283
			L60.856,71.011z"/>
	</g>
</g>
</svg>
