<?xml version="1.0" encoding="iso-8859-1"?>
<!-- Generator: Adobe Illustrator 17.0.0, SVG Export Plug-In . SVG Version: 6.00 Build 0)  -->
<!DOCTYPE svg PUBLIC "-//W3C//DTD SVG 1.1//EN" "http://www.w3.org/Graphics/SVG/1.1/DTD/svg11.dtd">
<svg version="1.1" id="&#x56FE;&#x5C42;_1" xmlns="http://www.w3.org/2000/svg" xmlns:xlink="http://www.w3.org/1999/xlink" x="0px"
	 y="0px" width="150px" height="150px" viewBox="0 0 150 150" style="enable-background:new 0 0 150 150;" xml:space="preserve">
<g id="forms">
	<g>
		<g>
			<path style="fill:#19AD91;" d="M116.272,15.322H95.56c-1.061-1.825-3.032-3.059-5.291-3.059h-6.118V3.085
				c0-1.689-1.37-3.059-3.059-3.059H38.265c-1.689,0-3.059,1.37-3.059,3.059v9.177h-6.118c-2.258,0-4.23,1.234-5.291,3.059H3.085
				c-1.689,0-3.059,1.37-3.059,3.059v128.482c0,1.689,1.37,3.059,3.059,3.059h113.186c1.689,0,3.059-1.37,3.059-3.059V18.381
				C119.331,16.691,117.961,15.322,116.272,15.322L116.272,15.322z M29.087,18.381h42.827v-6.118h-30.59V6.144h36.709v9.177
				c0,1.689,1.37,3.059,3.059,3.059h9.177v10.707H29.087V18.381z M29.087,35.206h61.182c2.258,0,4.23-1.234,5.291-3.059h6.946
				v74.948H79.563c-1.689,0-3.059,1.37-3.059,3.059v22.943H16.851V32.147h6.946C24.858,33.972,26.829,35.206,29.087,35.206
				L29.087,35.206z M98.18,113.213l-15.559,15.559v-15.559C82.621,113.213,98.18,113.213,98.18,113.213z M113.213,143.803H6.144
				V21.44h16.825v4.589h-9.177c-1.689,0-3.059,1.37-3.059,3.059v107.068c0,1.689,1.37,3.059,3.059,3.059h65.77
				c0.796,0,1.577-0.311,2.163-0.896l26.002-26.002c0.586-0.585,0.889-1.367,0.889-2.163h0.008V29.087
				c0-1.689-1.37-3.059-3.059-3.059h-9.177V21.44h16.825V143.803z"/>
			<path style="fill:#19AD91;" d="M29.087,67.326h15.295c1.689,0,3.059-1.37,3.059-3.059V48.972c0-1.689-1.37-3.059-3.059-3.059
				H29.087c-1.689,0-3.059,1.37-3.059,3.059v15.295C26.028,65.956,27.398,67.326,29.087,67.326L29.087,67.326z M41.324,61.208
				h-4.852l4.852-4.852V61.208z M32.147,52.031h4.852l-4.852,4.852V52.031z"/>
			<path style="fill:#19AD91;" d="M29.087,94.858h15.295c1.689,0,3.059-1.37,3.059-3.059V76.503c0-1.689-1.37-3.059-3.059-3.059
				H29.087c-1.689,0-3.059,1.37-3.059,3.059v15.295C26.028,93.488,27.398,94.858,29.087,94.858L29.087,94.858z M41.324,88.74h-4.852
				l4.852-4.852V88.74z M32.147,79.563h4.852l-4.852,4.852V79.563z"/>
			<path style="fill:#19AD91;" d="M29.087,122.39h15.295c1.689,0,3.059-1.37,3.059-3.059v-15.295c0-1.689-1.37-3.059-3.059-3.059
				H29.087c-1.689,0-3.059,1.37-3.059,3.059v15.295C26.028,121.02,27.398,122.39,29.087,122.39L29.087,122.39z M32.147,107.094
				h9.177v9.177h-9.177C32.147,116.271,32.147,107.094,32.147,107.094z"/>
			<rect x="56.619" y="48.972" style="fill:#19AD91;" width="21.414" height="6.118"/>
			<rect x="56.619" y="58.149" style="fill:#19AD91;" width="36.709" height="6.118"/>
			<rect x="56.619" y="76.503" style="fill:#19AD91;" width="21.414" height="6.118"/>
			<rect x="56.619" y="85.681" style="fill:#19AD91;" width="36.709" height="6.118"/>
			<rect x="56.619" y="104.035" style="fill:#19AD91;" width="7.648" height="6.118"/>
			<rect x="56.619" y="113.213" style="fill:#19AD91;" width="13.766" height="6.118"/>
			<path style="fill:#19AD91;" d="M149.915,24.499c0-0.436-0.086-0.874-0.275-1.282l-9.177-19.884
				c-0.501-1.084-1.585-1.777-2.778-1.777s-2.278,0.693-2.778,1.777l-9.177,19.884c-0.188,0.408-0.275,0.845-0.275,1.282h-0.006
				v122.364c0,1.689,1.37,3.059,3.059,3.059h18.355c1.689,0,3.059-1.37,3.059-3.059V24.499H149.915z M137.685,11.915l4.396,9.525
				h-8.792L137.685,11.915z M131.567,27.558h3.059v94.832h-3.059V27.558z M143.803,143.803h-12.236v-4.589h7.648v-6.118h-7.648
				v-4.589h12.236L143.803,143.803L143.803,143.803z M143.803,122.39h-3.059V27.558h3.059V122.39z"/>
		</g>
		<polygon style="opacity:0.3;fill:#19AD91;enable-background:new    ;" points="80.206,135.856 13.865,135.856 13.865,30.157 
			105.608,30.157 105.608,109.245 		"/>
	</g>
</g>
</svg>
