<?xml version="1.0" encoding="iso-8859-1"?>
<!-- Generator: Adobe Illustrator 17.0.0, SVG Export Plug-In . SVG Version: 6.00 Build 0)  -->
<!DOCTYPE svg PUBLIC "-//W3C//DTD SVG 1.1//EN" "http://www.w3.org/Graphics/SVG/1.1/DTD/svg11.dtd">
<svg version="1.1" id="&#x56FE;&#x5C42;_1" xmlns="http://www.w3.org/2000/svg" xmlns:xlink="http://www.w3.org/1999/xlink" x="0px"
	 y="0px" width="150px" height="150px" viewBox="0 0 150 150" style="enable-background:new 0 0 150 150;" xml:space="preserve">
<g>
	<path style="fill:#49338F;" d="M46.77,46.219c1.315-1.118,1.475-3.088,0.356-4.405c-3.271-3.849-5.074-8.755-5.074-13.816
		c0-11.77,9.576-21.342,21.345-21.342c11.77,0,21.345,9.573,21.345,21.342c0,5.067-1.805,9.977-5.082,13.827
		c-1.118,1.314-0.961,3.286,0.353,4.402c0.588,0.501,1.307,0.748,2.024,0.748c0.884,0,1.762-0.374,2.379-1.101
		c4.238-4.98,6.571-11.327,6.571-17.876c0-15.213-12.377-27.591-27.591-27.591S35.805,12.784,35.805,27.998
		c0,6.541,2.331,12.886,6.561,17.863C43.484,47.175,45.454,47.335,46.77,46.219L46.77,46.219z"/>
	<path style="fill:#49338F;" d="M63.317,21.857c6.886,0,12.397,4.219,14.22,10.348c0.396-1.335,0.612-2.743,0.612-4.207
		c0-8.147-6.604-14.751-14.751-14.751s-14.751,6.604-14.751,14.751c0,1.368,0.191,2.687,0.536,3.943
		C51.087,25.957,56.532,21.857,63.317,21.857L63.317,21.857z"/>
	<path style="fill:#49338F;fill-opacity:0.25;stroke:#49338F;stroke-width:4;stroke-miterlimit:10;" d="M122.678,88.836
		c-1.96-11.691-10.201-13.556-14.073-13.778c-1.22-0.069-2.351-0.687-3.02-1.708c-2.806-4.283-6.563-5.414-9.759-5.414
		c-2.293,0-4.293,0.584-5.437,1.006c-0.145,0.053-0.292,0.077-0.437,0.077c-0.452,0-0.885-0.244-1.126-0.656
		c-2.85-4.888-6.899-6.149-10.318-6.149c-1.993,0-3.77,0.427-4.972,0.815c-0.124,0.041-0.396,0.059-0.521,0.059
		c-0.653,0-1.373-0.536-1.373-1.235V36.72c0-5.745-4.281-8.615-8.589-8.615c-4.309,0-8.589,2.87-8.589,8.615v44.205
		c0,2.598-1.985,4.204-4.123,4.204c-1.299,0-2.55-0.592-3.411-1.914l-4.131-6.393c-1.828-3.015-4.466-4.263-7.094-4.266
		c-5.941,0-11.752,6.383-7.624,13.195l32.532,62.312c0.213,0.407,0.638,0.715,1.098,0.715h45.687c0.651,0,1.192-0.559,1.231-1.21
		l1.144-18.646c0.012-0.216,0.084-0.437,0.203-0.618C121.315,111.129,124.561,100.059,122.678,88.836L122.678,88.836z"/>
</g>
</svg>
