<?xml version="1.0" encoding="utf-8"?>
<!-- Generator: Adobe Illustrator 23.0.2, SVG Export Plug-In . SVG Version: 6.00 Build 0)  -->
<svg version="1.1" id="Layer_1" xmlns="http://www.w3.org/2000/svg" xmlns:xlink="http://www.w3.org/1999/xlink" x="0px" y="0px"
	 viewBox="0 0 150 150" style="enable-background:new 0 0 150 150;" xml:space="preserve">
<style type="text/css">
	.st0{fill:#FC4F08;}
	.st1{fill:none;stroke:#FC4F08;stroke-width:6;stroke-miterlimit:10;}
	.st2{fill-rule:evenodd;clip-rule:evenodd;fill:#FC4F08;}
	.st3{fill-rule:evenodd;clip-rule:evenodd;fill:#FDC9B6;}
	.st4{fill:#FDC9B6;stroke:#FC4F08;stroke-width:3.5;stroke-linecap:round;stroke-linejoin:round;stroke-miterlimit:10;}
	.st5{fill:#FFFFFF;}
	.st6{fill:#60B530;}
	.st7{fill:none;stroke:#60B530;stroke-width:5.1121;stroke-miterlimit:10;}
	.st8{fill:#FFFFFF;stroke:#60B530;stroke-width:6.0574;stroke-miterlimit:10;}
</style>
<g>
	<g>
		<path class="st0" d="M144,6v138H6V6H144 M150,0H0v150h150V0L150,0z"/>
	</g>
</g>
<g>
	<line class="st1" x1="2" y1="28" x2="150" y2="28"/>
</g>
<rect x="106" y="12" class="st2" width="7" height="7"/>
<rect x="118.5" y="12" class="st2" width="7" height="7"/>
<rect x="131" y="12" class="st2" width="7" height="7"/>
<g>
	<rect x="15" y="40" class="st3" width="32" height="95"/>
	<path class="st0" d="M44,43v89H18V43H44 M50,37H12v101h38V37L50,37z"/>
</g>
<g>
	<path class="st4" d="M127.4,44.6c0.3,0.4,7.7,5.6,7,7c0,0,0,6.3-2.4,11.1c-1.2,2.5,0.2,7.1-0.6,7.8s-2.9-0.2-3-0.5
		c-0.1-0.3-3.2-0.4-3.5,0.2c-0.3,0.6-0.7,5.4-0.7,5.4s7.3,0.3,7.8,3.7c0.2,1.3-0.8,2-0.8,2s0.9,1,0.5,1.9c-1.1,2.5-6.2,5.4-6.2,5.4
		l-1.3,1.5c0,0,3.4,0.4,3.1,2.3c-0.3,2.2-6.6,4.7-8.6,4.8c-1.9,0.1-6.1-1.8-6.1-1.8s0.2,2.2-0.8,3.5c-0.7,0.9-2.6,1.8-2.2,1.8
		c0.4,0,3,2.5,4.7,6.2c0.4,0.8,0.7,5.4,0.5,5.7c-0.4,1-1.4,2.8-2.6,4c-0.8,0.8-0.4,2.3-0.1,2.2s1.8,0.4,1.4,1.2
		c-0.9,1.6-2.7,3.7-2.9,4.5c-0.3,1.7,1.3,3.2,1.5,3.3c0.2,0.1,1,1.2,1.1,2.5c0.1,1.3-0.7,2.9-1.4,3.5c-1.7,1.4-6.1,0.6-7.9-0.6
		c-0.9-0.6-0.7-2-0.8-2.5c-0.1-0.5,0.2-1.8,1.7-2.3c0.3-0.1,2.6-8.6,2-8.6c-0.7-0.1-3.5-0.5-6-3.8c-1.1-1.5-1.5,0.8-4.8,0.8
		c-0.5,0-3.6-4.9-4.8-6s-4,0.9-5.1-0.8c-1-1.7-3.9,2-4.6,1.2c-1-1.1-3-1.5-3.9-0.8c-0.4,0.3-0.6,1.3-1.1,2c-0.6,0.9-6.7-0.2-7.6-0.4
		c-2.2-0.4-4-0.2-5-0.5c-1.6-0.4-2.8-0.9-3.9-1.3c-3.8-1.6-3.2-2.5-3.3-3c-0.1-0.5,1.5-1.6,2.7-2c1.2-0.4,1.6,0.2,1.8,0.6
		c0.2,0.4,1.6,1.1,2.2,1.1s2-0.3,2.5-0.2c1.9,0.4,4.6,1.5,5,1.5c1.5,0.2,2.6-0.4,3-1c0.2-0.4-0.4-1.3-0.8-1.9
		c-0.4-0.6-1-1.1-1.4-0.7s-1.1,0-0.9-0.4c0.2-0.4,0.3-0.9,1.1-0.6c0.8,0.4,3.1,1.1,5-0.6c0.4-0.4,0.6-1.3,1.4-0.9
		c0.8,0.4,1.7,0.5,4.4-0.3c1.6-0.4,3.9,0.6,3.9-0.8c0-1.4-2.9-0.7-5.9-0.2c-0.6,0.1-6.6-1.5-6.6-1.5l-4.6-3.8c0,0-0.4-0.9-0.3-1.6
		c0.3-1.1,1.4-1.6,2-1.8s7.4-6.7,9.6-15.2c0,0,16.1,6.3,16.7,6.6c0.6,0.3,2.6-0.1,2.9-0.1c0.3,0,6.2-7.2,6.6-7.4s0.7-2.7-0.4-3.5
		c0,0,3.2-0.9,3.3-1.2s0.8-0.9,0.2-1c-0.6-0.1-1.5,0.6-1.8,0.6s-5,1.2-5.4,0.7s-1.3-4.3-1.2-5.2c0.1-2.2,2.5-2,2.5-2.3
		c0-0.8-0.2-1-1.4-0.8c-0.3,0.1-3.8-0.2-4.1,0c-0.3,0.2-1.5,0.4-1.9-0.4c-0.4-0.8,0.3-9.9,2.1-11.8c1.2-1.3,5-3.3,6.4-4.1
		c1.4-0.8,9.5-2.7,10.3-2.8C118.1,43.5,126,42.9,127.4,44.6z"/>
	<path class="st4" d="M80.9,76.7c0,0,7,3,8.1,3.2c0.7,0.1,1.1-0.9,1.1-0.9s1.9-2.7,1.8-2.9c-0.1-0.2-1.9-4.2-1.9-4.5
		c0-0.3,3.4-0.6,3.9-1c0.5-0.4,1.7-1.5,1.9-2c0.3-0.7,0.1-1.1-0.4-1.4c-1.3-1-2.3,0.2-2.6,0.1c-0.1,0-0.8-0.4-1-1.2
		c-0.2-1-0.1-4.7-1.2-5.3c-1.4-0.9-3.8,1.5-4.4,1s-0.4-1.9-0.4-1.9s-0.4-0.5-1.5-0.2c-0.5,0.1,1,3.4-1.2,5.6
		C82.8,65.7,80.9,76.7,80.9,76.7z"/>
	<path class="st4" d="M86.9,52.4c0,0-3.7,4.2-2.9,6.1c0.3,0.7,3-1.3,3.4-1.9C88.3,55.5,88.7,53.8,86.9,52.4z"/>
	<path class="st4" d="M91.8,48.3c0,0-0.6-0.3-1.9,0.4s-3.2,2.4-3.2,2.4l1.3,0.2c0,0,2.1-1.9,2.9-2.2C91.1,49.1,92.2,48.4,91.8,48.3z
		"/>
	<path class="st4" d="M93.4,45.9c-0.4,0.3-0.5,1-0.3,1c0.2,0,0.5,0.2,0.9,0s7.3-3.2,7.4-3.3c0-0.1,0-0.5-1.6,0
		C98.2,44.1,93.8,45.6,93.4,45.9z"/>
	<path class="st4" d="M102.3,42.9c0,0-0.2,1,0.1,1.2s6.4-0.8,6.5-0.8c0.1,0,0.2-0.7-0.2-0.7C106.3,42.6,103.6,42.6,102.3,42.9z"/>
	<path class="st4" d="M112.4,42.1c-0.3,0.4,0,1.4,0,1.4s4.2-1.3,4.2-2C116.5,40.9,113.1,41.3,112.4,42.1z"/>
	<path class="st4" d="M77.3,101.3c0,0-1.5,0.3-2.1,0c-0.3-0.2-5.9-4.6-5.9-4.6s-2.3,0.2-2.8,0.6c-0.2,0.2-0.7,0.8-0.5,1
		s0.3,0.8,0.8,0.3c0.3-0.3,2.4,0.1,3.7,2.5c0.5,0.9,3.1,1.5,3.4,1.6C76.6,103,76.5,101.5,77.3,101.3z"/>
	<path class="st4" d="M62.2,101.2c0,0.4-0.1,0.8,0.5,1.1s6.7,2.4,7.4,2c0.5-0.3,1.1-2-1.1-2.9c-0.8-0.3-2.2-1.6-3.6-1.6
		C63.5,99.8,62.2,100.8,62.2,101.2z"/>
	<path class="st4" d="M61.4,105c0,0,3.3-0.5,4-0.3s1.2,0.8,0.5,1.5c0,0-3.4,0.2-3.6,0.1C61.3,105.7,61.4,105,61.4,105z"/>
	<path class="st4" d="M68.6,105.1l3.7-0.3c0,0,1.6,1.6,0.3,2.5c-0.5,0.4-3.7-1-4.1-1.7C68.4,105.4,68.2,105.2,68.6,105.1z"/>
	<path class="st4" d="M58.4,110.8c-0.8-0.1-2.1,0.5-2.6,1.2c-0.3,0.5,0.1,1-0.2,2.4c-0.4,1.8,1.2,2.5,1.4,2.5
		c1.7-0.1,1.5-0.2,3.2-0.8c0.3-0.1,2.5,0.3,2.7,0.4c0.3,0.2,1.3,1.4,3.3,1.6c0.4,0,2.9-0.6,4.8-1.9c1.3-0.9,2.3-2.6,2.3-2.7
		c0-0.3-2.2-0.7-2.3-0.6c-0.6,0.7-7.8-0.9-8.7-1S60.1,110.9,58.4,110.8z"/>
	<path class="st4" d="M105.5,72.8l-3.3-1.5c0,0-10.1,7.4-10.3,8c-0.1,0.4,0.5,1.3,0.8,1.5c0.3,0.2,0.5,0.2,2,1.3
		c1.6,1.1,2.8,1.3,3.4,1.1c2.7-0.8,4.3-3.9,4.3-3.9s1.3-1.3,2.4-1.4c1.2-0.1,2.5-2.8,2.2-3.9C106.8,72.9,105.5,72.8,105.5,72.8z"/>
</g>
</svg>
